<svg xmlns="http://www.w3.org/2000/svg" xmlns:xlink="http://www.w3.org/1999/xlink" width="500" zoomAndPan="magnify" viewBox="0 0 375 374.999991" height="500" preserveAspectRatio="xMidYMid meet" version="1.0"><defs><g/><clipPath id="ab5ad88794"><path d="M 68 68 L 307 68 L 307 307 L 68 307 Z M 68 68 " clip-rule="nonzero"/></clipPath><clipPath id="32d52bb3ff"><path d="M 58.664062 187.496094 L 187.5 58.65625 L 316.339844 187.496094 L 187.5 316.335938 Z M 58.664062 187.496094 " clip-rule="nonzero"/></clipPath><clipPath id="7b9f762e24"><path d="M 75.101562 171.054688 L 171.0625 75.097656 C 180.140625 66.015625 194.863281 66.015625 203.941406 75.097656 L 299.902344 171.054688 C 308.980469 180.132812 308.980469 194.855469 299.902344 203.933594 L 203.941406 299.894531 C 194.863281 308.972656 180.140625 308.972656 171.0625 299.894531 L 75.101562 203.933594 C 66.023438 194.855469 66.023438 180.132812 75.101562 171.054688 Z M 75.101562 171.054688 " clip-rule="nonzero"/></clipPath><clipPath id="a160e91965"><path d="M 68 66 L 309 66 L 309 307 L 68 307 Z M 68 66 " clip-rule="nonzero"/></clipPath><clipPath id="aac5e8ee48"><path d="M 58.664062 186.699219 L 188.296875 57.0625 L 317.933594 186.699219 L 188.296875 316.335938 Z M 58.664062 186.699219 " clip-rule="nonzero"/></clipPath><clipPath id="d930fe6ac7"><path d="M 75.101562 170.257812 L 171.859375 73.503906 C 180.9375 64.421875 195.660156 64.421875 204.738281 73.503906 L 301.492188 170.257812 C 310.574219 179.339844 310.574219 194.058594 301.492188 203.140625 L 204.738281 299.894531 C 195.660156 308.972656 180.9375 308.972656 171.859375 299.894531 L 75.101562 203.140625 C 66.023438 194.058594 66.023438 179.339844 75.101562 170.257812 Z M 75.101562 170.257812 " clip-rule="nonzero"/></clipPath><clipPath id="c1c1ad8edc"><path d="M 68 68 L 309 68 L 309 309 L 68 309 Z M 68 68 " clip-rule="nonzero"/></clipPath><clipPath id="ec6b3e2794"><path d="M 58.664062 188.292969 L 188.296875 58.65625 L 317.933594 188.292969 L 188.296875 317.925781 Z M 58.664062 188.292969 " clip-rule="nonzero"/></clipPath><clipPath id="4b0d85dd86"><path d="M 75.101562 171.851562 L 171.859375 75.097656 C 180.9375 66.015625 195.660156 66.015625 204.738281 75.097656 L 301.492188 171.851562 C 310.574219 180.929688 310.574219 195.652344 301.492188 204.730469 L 204.738281 301.488281 C 195.660156 310.566406 180.9375 310.566406 171.859375 301.488281 L 75.101562 204.730469 C 66.023438 195.652344 66.023438 180.929688 75.101562 171.851562 Z M 75.101562 171.851562 " clip-rule="nonzero"/></clipPath><clipPath id="55742ed1e0"><path d="M 68 66 L 310 66 L 310 309 L 68 309 Z M 68 66 " clip-rule="nonzero"/></clipPath><clipPath id="0e0a83d0fc"><path d="M 58.664062 187.496094 L 189.09375 57.0625 L 319.527344 187.496094 L 189.09375 317.925781 Z M 58.664062 187.496094 " clip-rule="nonzero"/></clipPath><clipPath id="8eca4e116a"><path d="M 75.101562 171.054688 L 172.65625 73.503906 C 181.734375 64.421875 196.457031 64.421875 205.535156 73.503906 L 303.085938 171.054688 C 312.167969 180.132812 312.167969 194.855469 303.085938 203.933594 L 205.535156 301.488281 C 196.457031 310.566406 181.734375 310.566406 172.65625 301.488281 L 75.101562 203.933594 C 66.023438 194.855469 66.023438 180.132812 75.101562 171.054688 Z M 75.101562 171.054688 " clip-rule="nonzero"/></clipPath></defs><g clip-path="url(#ab5ad88794)"><g clip-path="url(#32d52bb3ff)"><g clip-path="url(#7b9f762e24)"><path fill="#cff665" d="M 58.664062 187.496094 L 187.5 58.65625 L 316.339844 187.496094 L 187.5 316.335938 Z M 58.664062 187.496094 " fill-opacity="1" fill-rule="nonzero"/></g></g></g><g fill="#4200f6" fill-opacity="1"><g transform="translate(100.713114, 223.158054)"><g><path d="M 45.4375 -0.875 C 45.53125 -0.675781 45.503906 -0.476562 45.359375 -0.28125 C 45.210938 -0.09375 45.019531 0 44.78125 0 L 34.796875 0 C 34.460938 0 34.242188 -0.144531 34.140625 -0.4375 L 22.71875 -32.703125 L 11.4375 -0.4375 C 11.382812 -0.144531 11.140625 0 10.703125 0 L 0.796875 0 C 0.460938 0 0.234375 -0.09375 0.109375 -0.28125 C -0.015625 -0.476562 -0.0234375 -0.675781 0.078125 -0.875 L 22 -57.4375 C 22.09375 -57.726562 22.332031 -57.875 22.71875 -57.875 C 23.101562 -57.875 23.34375 -57.726562 23.4375 -57.4375 Z M 45.4375 -0.875 "/></g></g></g><g fill="#4200f6" fill-opacity="1"><g transform="translate(155.189653, 223.158054)"><g><path d="M 33.0625 -10.640625 L 44.125 -10.640625 L 44.125 -0.65625 C 44.125 -0.21875 43.859375 0 43.328125 0 L 33.921875 0 C 31.035156 0 28.023438 -0.210938 24.890625 -0.640625 C 21.753906 -1.078125 18.710938 -1.882812 15.765625 -3.0625 C 12.828125 -4.25 10.164062 -5.914062 7.78125 -8.0625 C 5.394531 -10.207031 3.5 -12.976562 2.09375 -16.375 C 0.695312 -19.78125 0 -23.96875 0 -28.9375 C 0 -34.050781 0.707031 -38.34375 2.125 -41.8125 C 3.550781 -45.289062 5.457031 -48.085938 7.84375 -50.203125 C 10.238281 -52.328125 12.914062 -53.941406 15.875 -55.046875 C 18.84375 -56.160156 21.878906 -56.910156 24.984375 -57.296875 C 28.097656 -57.679688 31.078125 -57.875 33.921875 -57.875 L 43.328125 -57.875 C 43.859375 -57.875 44.125 -57.65625 44.125 -57.21875 L 44.125 -34.515625 L 33.0625 -34.515625 L 33.0625 -47.3125 C 28.863281 -47.550781 25.113281 -47.078125 21.8125 -45.890625 C 18.507812 -44.710938 15.90625 -42.738281 14 -39.96875 C 12.09375 -37.195312 11.140625 -33.519531 11.140625 -28.9375 C 11.140625 -25.363281 11.65625 -22.421875 12.6875 -20.109375 C 13.726562 -17.796875 15.101562 -15.988281 16.8125 -14.6875 C 18.53125 -13.382812 20.378906 -12.429688 22.359375 -11.828125 C 24.335938 -11.222656 26.265625 -10.859375 28.140625 -10.734375 C 30.023438 -10.617188 31.664062 -10.585938 33.0625 -10.640625 Z M 33.0625 -10.640625 "/></g></g></g><g fill="#4200f6" fill-opacity="1"><g transform="translate(208.291626, 223.158054)"><g><path d="M 51.796875 -13.96875 L 51.796875 -32.34375 L 37.046875 -2.75 C 36.941406 -2.457031 36.722656 -2.3125 36.390625 -2.3125 L 27.484375 -2.3125 C 27.097656 -2.3125 26.859375 -2.457031 26.765625 -2.75 L 11.0625 -33.140625 L 11.0625 -0.65625 C 11.0625 -0.21875 10.796875 0 10.265625 0 L 0.71875 0 C 0.238281 0 0 -0.21875 0 -0.65625 L 0 -57.21875 C 0 -57.65625 0.238281 -57.875 0.71875 -57.875 L 10.421875 -57.875 C 10.804688 -57.875 11.046875 -57.726562 11.140625 -57.4375 L 31.90625 -15.046875 L 51.65625 -57.4375 C 51.84375 -57.726562 52.109375 -57.875 52.453125 -57.875 L 62 -57.875 C 62.53125 -57.875 62.796875 -57.65625 62.796875 -57.21875 L 62.796875 -13.96875 Z M 51.796875 -13.96875 "/></g></g></g><g clip-path="url(#a160e91965)"><g clip-path="url(#aac5e8ee48)"><g clip-path="url(#d930fe6ac7)"><path fill="#f238a7" d="M 58.664062 186.699219 L 188.296875 57.0625 L 317.933594 186.699219 L 188.296875 316.335938 Z M 58.664062 186.699219 " fill-opacity="1" fill-rule="nonzero"/></g></g></g><g fill="#cff665" fill-opacity="1"><g transform="translate(100.97309, 222.581884)"><g><path d="M 45.71875 -0.875 C 45.8125 -0.675781 45.785156 -0.476562 45.640625 -0.28125 C 45.492188 -0.09375 45.300781 0 45.0625 0 L 35.015625 0 C 34.671875 0 34.453125 -0.144531 34.359375 -0.4375 L 22.859375 -32.90625 L 11.5 -0.4375 C 11.445312 -0.144531 11.207031 0 10.78125 0 L 0.796875 0 C 0.460938 0 0.234375 -0.09375 0.109375 -0.28125 C -0.015625 -0.476562 -0.0234375 -0.675781 0.078125 -0.875 L 22.125 -57.796875 C 22.226562 -58.085938 22.472656 -58.234375 22.859375 -58.234375 C 23.242188 -58.234375 23.488281 -58.085938 23.59375 -57.796875 Z M 45.71875 -0.875 "/></g></g></g><g fill="#cff665" fill-opacity="1"><g transform="translate(155.786423, 222.581884)"><g><path d="M 33.265625 -10.703125 L 44.40625 -10.703125 L 44.40625 -0.65625 C 44.40625 -0.21875 44.140625 0 43.609375 0 L 34.140625 0 C 31.234375 0 28.203125 -0.21875 25.046875 -0.65625 C 21.890625 -1.09375 18.828125 -1.90625 15.859375 -3.09375 C 12.898438 -4.28125 10.21875 -5.953125 7.8125 -8.109375 C 5.414062 -10.273438 3.515625 -13.066406 2.109375 -16.484375 C 0.703125 -19.910156 0 -24.125 0 -29.125 C 0 -34.257812 0.710938 -38.570312 2.140625 -42.0625 C 3.578125 -45.5625 5.492188 -48.378906 7.890625 -50.515625 C 10.296875 -52.648438 12.988281 -54.273438 15.96875 -55.390625 C 18.957031 -56.515625 22.015625 -57.269531 25.140625 -57.65625 C 28.273438 -58.039062 31.273438 -58.234375 34.140625 -58.234375 L 43.609375 -58.234375 C 44.140625 -58.234375 44.40625 -58.015625 44.40625 -57.578125 L 44.40625 -34.71875 L 33.265625 -34.71875 L 33.265625 -47.609375 C 29.046875 -47.847656 25.273438 -47.375 21.953125 -46.1875 C 18.628906 -45 16.003906 -43.007812 14.078125 -40.21875 C 12.160156 -37.425781 11.203125 -33.726562 11.203125 -29.125 C 11.203125 -25.53125 11.722656 -22.566406 12.765625 -20.234375 C 13.816406 -17.910156 15.203125 -16.09375 16.921875 -14.78125 C 18.648438 -13.46875 20.507812 -12.507812 22.5 -11.90625 C 24.488281 -11.300781 26.425781 -10.9375 28.3125 -10.8125 C 30.207031 -10.6875 31.859375 -10.648438 33.265625 -10.703125 Z M 33.265625 -10.703125 "/></g></g></g><g fill="#cff665" fill-opacity="1"><g transform="translate(209.21669, 222.581884)"><g><path d="M 52.125 -14.046875 L 52.125 -32.546875 L 37.265625 -2.765625 C 37.171875 -2.472656 36.953125 -2.328125 36.609375 -2.328125 L 27.65625 -2.328125 C 27.269531 -2.328125 27.03125 -2.472656 26.9375 -2.765625 L 11.140625 -33.34375 L 11.140625 -0.65625 C 11.140625 -0.21875 10.875 0 10.34375 0 L 0.734375 0 C 0.242188 0 0 -0.21875 0 -0.65625 L 0 -57.578125 C 0 -58.015625 0.242188 -58.234375 0.734375 -58.234375 L 10.484375 -58.234375 C 10.867188 -58.234375 11.109375 -58.085938 11.203125 -57.796875 L 32.109375 -15.140625 L 51.984375 -57.796875 C 52.171875 -58.085938 52.4375 -58.234375 52.78125 -58.234375 L 62.390625 -58.234375 C 62.921875 -58.234375 63.1875 -58.015625 63.1875 -57.578125 L 63.1875 -14.046875 Z M 52.125 -14.046875 "/></g></g></g><g clip-path="url(#c1c1ad8edc)"><g clip-path="url(#ec6b3e2794)"><g clip-path="url(#4b0d85dd86)"><path fill="#ff4733" d="M 58.664062 188.292969 L 188.296875 58.65625 L 317.933594 188.292969 L 188.296875 317.925781 Z M 58.664062 188.292969 " fill-opacity="1" fill-rule="nonzero"/></g></g></g><g fill="#1b1515" fill-opacity="1"><g transform="translate(100.97309, 224.174932)"><g><path d="M 45.71875 -0.875 C 45.8125 -0.675781 45.785156 -0.476562 45.640625 -0.28125 C 45.492188 -0.09375 45.300781 0 45.0625 0 L 35.015625 0 C 34.671875 0 34.453125 -0.144531 34.359375 -0.4375 L 22.859375 -32.90625 L 11.5 -0.4375 C 11.445312 -0.144531 11.207031 0 10.78125 0 L 0.796875 0 C 0.460938 0 0.234375 -0.09375 0.109375 -0.28125 C -0.015625 -0.476562 -0.0234375 -0.675781 0.078125 -0.875 L 22.125 -57.796875 C 22.226562 -58.085938 22.472656 -58.234375 22.859375 -58.234375 C 23.242188 -58.234375 23.488281 -58.085938 23.59375 -57.796875 Z M 45.71875 -0.875 "/></g></g></g><g fill="#1b1515" fill-opacity="1"><g transform="translate(155.786423, 224.174932)"><g><path d="M 33.265625 -10.703125 L 44.40625 -10.703125 L 44.40625 -0.65625 C 44.40625 -0.21875 44.140625 0 43.609375 0 L 34.140625 0 C 31.234375 0 28.203125 -0.21875 25.046875 -0.65625 C 21.890625 -1.09375 18.828125 -1.90625 15.859375 -3.09375 C 12.898438 -4.28125 10.21875 -5.953125 7.8125 -8.109375 C 5.414062 -10.273438 3.515625 -13.066406 2.109375 -16.484375 C 0.703125 -19.910156 0 -24.125 0 -29.125 C 0 -34.257812 0.710938 -38.570312 2.140625 -42.0625 C 3.578125 -45.5625 5.492188 -48.378906 7.890625 -50.515625 C 10.296875 -52.648438 12.988281 -54.273438 15.96875 -55.390625 C 18.957031 -56.515625 22.015625 -57.269531 25.140625 -57.65625 C 28.273438 -58.039062 31.273438 -58.234375 34.140625 -58.234375 L 43.609375 -58.234375 C 44.140625 -58.234375 44.40625 -58.015625 44.40625 -57.578125 L 44.40625 -34.71875 L 33.265625 -34.71875 L 33.265625 -47.609375 C 29.046875 -47.847656 25.273438 -47.375 21.953125 -46.1875 C 18.628906 -45 16.003906 -43.007812 14.078125 -40.21875 C 12.160156 -37.425781 11.203125 -33.726562 11.203125 -29.125 C 11.203125 -25.53125 11.722656 -22.566406 12.765625 -20.234375 C 13.816406 -17.910156 15.203125 -16.09375 16.921875 -14.78125 C 18.648438 -13.46875 20.507812 -12.507812 22.5 -11.90625 C 24.488281 -11.300781 26.425781 -10.9375 28.3125 -10.8125 C 30.207031 -10.6875 31.859375 -10.648438 33.265625 -10.703125 Z M 33.265625 -10.703125 "/></g></g></g><g fill="#1b1515" fill-opacity="1"><g transform="translate(209.21669, 224.174932)"><g><path d="M 52.125 -14.046875 L 52.125 -32.546875 L 37.265625 -2.765625 C 37.171875 -2.472656 36.953125 -2.328125 36.609375 -2.328125 L 27.65625 -2.328125 C 27.269531 -2.328125 27.03125 -2.472656 26.9375 -2.765625 L 11.140625 -33.34375 L 11.140625 -0.65625 C 11.140625 -0.21875 10.875 0 10.34375 0 L 0.734375 0 C 0.242188 0 0 -0.21875 0 -0.65625 L 0 -57.578125 C 0 -58.015625 0.242188 -58.234375 0.734375 -58.234375 L 10.484375 -58.234375 C 10.867188 -58.234375 11.109375 -58.085938 11.203125 -57.796875 L 32.109375 -15.140625 L 51.984375 -57.796875 C 52.171875 -58.085938 52.4375 -58.234375 52.78125 -58.234375 L 62.390625 -58.234375 C 62.921875 -58.234375 63.1875 -58.015625 63.1875 -57.578125 L 63.1875 -14.046875 Z M 52.125 -14.046875 "/></g></g></g><g clip-path="url(#55742ed1e0)"><g clip-path="url(#0e0a83d0fc)"><g clip-path="url(#8eca4e116a)"><path fill="#4200f6" d="M 58.664062 187.496094 L 189.09375 57.0625 L 319.527344 187.496094 L 189.09375 317.925781 Z M 58.664062 187.496094 " fill-opacity="1" fill-rule="nonzero"/></g></g></g><g fill="#cff665" fill-opacity="1"><g transform="translate(101.235589, 223.914833)"><g><path d="M 45.984375 -0.875 C 46.085938 -0.675781 46.066406 -0.476562 45.921875 -0.28125 C 45.773438 -0.09375 45.578125 0 45.328125 0 L 35.21875 0 C 34.882812 0 34.664062 -0.144531 34.5625 -0.4375 L 23 -33.109375 L 11.578125 -0.4375 C 11.523438 -0.144531 11.28125 0 10.84375 0 L 0.8125 0 C 0.46875 0 0.234375 -0.09375 0.109375 -0.28125 C -0.015625 -0.476562 -0.0234375 -0.675781 0.078125 -0.875 L 22.265625 -58.140625 C 22.359375 -58.441406 22.597656 -58.59375 22.984375 -58.59375 C 23.378906 -58.59375 23.628906 -58.441406 23.734375 -58.140625 Z M 45.984375 -0.875 "/></g></g></g><g fill="#cff665" fill-opacity="1"><g transform="translate(156.382891, 223.914833)"><g><path d="M 33.46875 -10.765625 L 44.671875 -10.765625 L 44.671875 -0.65625 C 44.671875 -0.21875 44.40625 0 43.875 0 L 34.34375 0 C 31.414062 0 28.363281 -0.21875 25.1875 -0.65625 C 22.019531 -1.09375 18.945312 -1.910156 15.96875 -3.109375 C 12.988281 -4.304688 10.289062 -5.988281 7.875 -8.15625 C 5.457031 -10.332031 3.539062 -13.140625 2.125 -16.578125 C 0.707031 -20.023438 0 -24.265625 0 -29.296875 C 0 -34.472656 0.71875 -38.816406 2.15625 -42.328125 C 3.601562 -45.847656 5.535156 -48.679688 7.953125 -50.828125 C 10.367188 -52.972656 13.078125 -54.609375 16.078125 -55.734375 C 19.078125 -56.859375 22.148438 -57.613281 25.296875 -58 C 28.453125 -58.394531 31.46875 -58.59375 34.34375 -58.59375 L 43.875 -58.59375 C 44.40625 -58.59375 44.671875 -58.367188 44.671875 -57.921875 L 44.671875 -34.9375 L 33.46875 -34.9375 L 33.46875 -47.890625 C 29.21875 -48.140625 25.421875 -47.664062 22.078125 -46.46875 C 18.734375 -45.269531 16.097656 -43.265625 14.171875 -40.453125 C 12.242188 -37.648438 11.28125 -33.929688 11.28125 -29.296875 C 11.28125 -25.679688 11.800781 -22.703125 12.84375 -20.359375 C 13.894531 -18.015625 15.285156 -16.179688 17.015625 -14.859375 C 18.753906 -13.546875 20.625 -12.582031 22.625 -11.96875 C 24.625 -11.363281 26.578125 -11 28.484375 -10.875 C 30.390625 -10.75 32.050781 -10.710938 33.46875 -10.765625 Z M 33.46875 -10.765625 "/></g></g></g><g fill="#cff665" fill-opacity="1"><g transform="translate(210.138705, 223.914833)"><g><path d="M 52.4375 -14.140625 L 52.4375 -32.734375 L 37.5 -2.78125 C 37.394531 -2.488281 37.175781 -2.34375 36.84375 -2.34375 L 27.828125 -2.34375 C 27.441406 -2.34375 27.195312 -2.488281 27.09375 -2.78125 L 11.203125 -33.546875 L 11.203125 -0.65625 C 11.203125 -0.21875 10.9375 0 10.40625 0 L 0.734375 0 C 0.242188 0 0 -0.21875 0 -0.65625 L 0 -57.921875 C 0 -58.367188 0.242188 -58.59375 0.734375 -58.59375 L 10.546875 -58.59375 C 10.929688 -58.59375 11.175781 -58.441406 11.28125 -58.140625 L 32.296875 -15.234375 L 52.296875 -58.140625 C 52.484375 -58.441406 52.75 -58.59375 53.09375 -58.59375 L 62.765625 -58.59375 C 63.296875 -58.59375 63.5625 -58.367188 63.5625 -57.921875 L 63.5625 -14.140625 Z M 52.4375 -14.140625 "/></g></g></g></svg>