<svg xmlns="http://www.w3.org/2000/svg" xmlns:xlink="http://www.w3.org/1999/xlink" width="500" zoomAndPan="magnify" viewBox="0 0 375 374.999991" height="500" preserveAspectRatio="xMidYMid meet" version="1.0"><defs><g/><clipPath id="180ae52977"><path d="M 68 68 L 307 68 L 307 307 L 68 307 Z M 68 68 " clip-rule="nonzero"/></clipPath><clipPath id="264a11834f"><path d="M 58.664062 187.496094 L 187.5 58.65625 L 316.339844 187.496094 L 187.5 316.335938 Z M 58.664062 187.496094 " clip-rule="nonzero"/></clipPath><clipPath id="f5f3bf2f4b"><path d="M 75.101562 171.054688 L 171.0625 75.097656 C 180.140625 66.015625 194.863281 66.015625 203.941406 75.097656 L 299.902344 171.054688 C 308.980469 180.132812 308.980469 194.855469 299.902344 203.933594 L 203.941406 299.894531 C 194.863281 308.972656 180.140625 308.972656 171.0625 299.894531 L 75.101562 203.933594 C 66.023438 194.855469 66.023438 180.132812 75.101562 171.054688 Z M 75.101562 171.054688 " clip-rule="nonzero"/></clipPath></defs><g clip-path="url(#180ae52977)"><g clip-path="url(#264a11834f)"><g clip-path="url(#f5f3bf2f4b)"><path fill="#cff665" d="M 58.664062 187.496094 L 187.5 58.65625 L 316.339844 187.496094 L 187.5 316.335938 Z M 58.664062 187.496094 " fill-opacity="1" fill-rule="nonzero"/></g></g></g><g fill="#4200f6" fill-opacity="1"><g transform="translate(100.713114, 223.157966)"><g><path d="M 45.4375 -0.875 C 45.53125 -0.675781 45.503906 -0.476562 45.359375 -0.28125 C 45.210938 -0.09375 45.019531 0 44.78125 0 L 34.796875 0 C 34.460938 0 34.242188 -0.144531 34.140625 -0.4375 L 22.71875 -32.703125 L 11.4375 -0.4375 C 11.382812 -0.144531 11.140625 0 10.703125 0 L 0.796875 0 C 0.460938 0 0.234375 -0.09375 0.109375 -0.28125 C -0.015625 -0.476562 -0.0234375 -0.675781 0.078125 -0.875 L 22 -57.4375 C 22.09375 -57.726562 22.332031 -57.875 22.71875 -57.875 C 23.101562 -57.875 23.34375 -57.726562 23.4375 -57.4375 Z M 45.4375 -0.875 "/></g></g></g><g fill="#4200f6" fill-opacity="1"><g transform="translate(155.189653, 223.157966)"><g><path d="M 33.0625 -10.640625 L 44.125 -10.640625 L 44.125 -0.65625 C 44.125 -0.21875 43.859375 0 43.328125 0 L 33.921875 0 C 31.035156 0 28.023438 -0.210938 24.890625 -0.640625 C 21.753906 -1.078125 18.710938 -1.882812 15.765625 -3.0625 C 12.828125 -4.25 10.164062 -5.914062 7.78125 -8.0625 C 5.394531 -10.207031 3.5 -12.976562 2.09375 -16.375 C 0.695312 -19.78125 0 -23.96875 0 -28.9375 C 0 -34.050781 0.707031 -38.34375 2.125 -41.8125 C 3.550781 -45.289062 5.457031 -48.085938 7.84375 -50.203125 C 10.238281 -52.328125 12.914062 -53.941406 15.875 -55.046875 C 18.84375 -56.160156 21.878906 -56.910156 24.984375 -57.296875 C 28.097656 -57.679688 31.078125 -57.875 33.921875 -57.875 L 43.328125 -57.875 C 43.859375 -57.875 44.125 -57.65625 44.125 -57.21875 L 44.125 -34.515625 L 33.0625 -34.515625 L 33.0625 -47.3125 C 28.863281 -47.550781 25.113281 -47.078125 21.8125 -45.890625 C 18.507812 -44.710938 15.90625 -42.738281 14 -39.96875 C 12.09375 -37.195312 11.140625 -33.519531 11.140625 -28.9375 C 11.140625 -25.363281 11.65625 -22.421875 12.6875 -20.109375 C 13.726562 -17.796875 15.101562 -15.988281 16.8125 -14.6875 C 18.53125 -13.382812 20.378906 -12.429688 22.359375 -11.828125 C 24.335938 -11.222656 26.265625 -10.859375 28.140625 -10.734375 C 30.023438 -10.617188 31.664062 -10.585938 33.0625 -10.640625 Z M 33.0625 -10.640625 "/></g></g></g><g fill="#4200f6" fill-opacity="1"><g transform="translate(208.291626, 223.157966)"><g><path d="M 51.796875 -13.96875 L 51.796875 -32.34375 L 37.046875 -2.75 C 36.941406 -2.457031 36.722656 -2.3125 36.390625 -2.3125 L 27.484375 -2.3125 C 27.097656 -2.3125 26.859375 -2.457031 26.765625 -2.75 L 11.0625 -33.140625 L 11.0625 -0.65625 C 11.0625 -0.21875 10.796875 0 10.265625 0 L 0.71875 0 C 0.238281 0 0 -0.21875 0 -0.65625 L 0 -57.21875 C 0 -57.65625 0.238281 -57.875 0.71875 -57.875 L 10.421875 -57.875 C 10.804688 -57.875 11.046875 -57.726562 11.140625 -57.4375 L 31.90625 -15.046875 L 51.65625 -57.4375 C 51.84375 -57.726562 52.109375 -57.875 52.453125 -57.875 L 62 -57.875 C 62.53125 -57.875 62.796875 -57.65625 62.796875 -57.21875 L 62.796875 -13.96875 Z M 51.796875 -13.96875 "/></g></g></g></svg>