<svg xmlns="http://www.w3.org/2000/svg" xmlns:xlink="http://www.w3.org/1999/xlink" width="500" zoomAndPan="magnify" viewBox="0 0 375 374.999991" height="500" preserveAspectRatio="xMidYMid meet" version="1.0"><defs><g/><clipPath id="a819420d8e"><path d="M 9 99 L 170 99 L 170 260 L 9 260 Z M 9 99 " clip-rule="nonzero"/></clipPath><clipPath id="131fc1a218"><path d="M 0 179.84375 L 89.507812 90.335938 L 179.019531 179.84375 L 89.507812 269.351562 Z M 0 179.84375 " clip-rule="nonzero"/></clipPath><clipPath id="0521fa5377"><path d="M 16.441406 163.402344 L 73.070312 106.773438 C 82.148438 97.695312 96.871094 97.695312 105.949219 106.773438 L 162.578125 163.402344 C 171.65625 172.484375 171.65625 187.203125 162.578125 196.285156 L 105.949219 252.910156 C 96.871094 261.992188 82.148438 261.992188 73.070312 252.910156 L 16.441406 196.285156 C 7.363281 187.203125 7.363281 172.484375 16.441406 163.402344 Z M 16.441406 163.402344 " clip-rule="nonzero"/></clipPath></defs><g clip-path="url(#a819420d8e)"><g clip-path="url(#131fc1a218)"><g clip-path="url(#0521fa5377)"><path fill="#000000" d="M 0 179.84375 L 89.507812 90.335938 L 179.019531 179.84375 L 89.507812 269.351562 Z M 0 179.84375 " fill-opacity="1" fill-rule="nonzero"/></g></g></g><g fill="#ffffff" fill-opacity="1"><g transform="translate(29.214755, 204.619035)"><g><path d="M 31.5625 -0.609375 C 31.632812 -0.472656 31.617188 -0.335938 31.515625 -0.203125 C 31.410156 -0.0664062 31.273438 0 31.109375 0 L 24.171875 0 C 23.941406 0 23.789062 -0.0976562 23.71875 -0.296875 L 15.78125 -22.71875 L 7.9375 -0.296875 C 7.90625 -0.0976562 7.738281 0 7.4375 0 L 0.546875 0 C 0.316406 0 0.160156 -0.0664062 0.078125 -0.203125 C -0.00390625 -0.335938 -0.015625 -0.472656 0.046875 -0.609375 L 15.28125 -39.90625 C 15.34375 -40.113281 15.507812 -40.21875 15.78125 -40.21875 C 16.050781 -40.21875 16.21875 -40.113281 16.28125 -39.90625 Z M 31.5625 -0.609375 "/></g></g></g><g fill="#ffffff" fill-opacity="1"><g transform="translate(67.061211, 204.619035)"><g><path d="M 22.96875 -7.390625 L 30.65625 -7.390625 L 30.65625 -0.453125 C 30.65625 -0.148438 30.472656 0 30.109375 0 L 23.578125 0 C 21.566406 0 19.472656 -0.148438 17.296875 -0.453125 C 15.117188 -0.753906 13.003906 -1.316406 10.953125 -2.140625 C 8.910156 -2.960938 7.0625 -4.117188 5.40625 -5.609375 C 3.75 -7.097656 2.429688 -9.019531 1.453125 -11.375 C 0.484375 -13.738281 0 -16.648438 0 -20.109375 C 0 -23.660156 0.492188 -26.640625 1.484375 -29.046875 C 2.472656 -31.460938 3.796875 -33.40625 5.453125 -34.875 C 7.109375 -36.351562 8.96875 -37.476562 11.03125 -38.25 C 13.09375 -39.019531 15.203125 -39.539062 17.359375 -39.8125 C 19.523438 -40.082031 21.597656 -40.21875 23.578125 -40.21875 L 30.109375 -40.21875 C 30.472656 -40.21875 30.65625 -40.066406 30.65625 -39.765625 L 30.65625 -23.984375 L 22.96875 -23.984375 L 22.96875 -32.875 C 20.050781 -33.039062 17.445312 -32.710938 15.15625 -31.890625 C 12.863281 -31.066406 11.050781 -29.691406 9.71875 -27.765625 C 8.394531 -25.835938 7.734375 -23.285156 7.734375 -20.109375 C 7.734375 -17.628906 8.09375 -15.582031 8.8125 -13.96875 C 9.539062 -12.363281 10.5 -11.109375 11.6875 -10.203125 C 12.875 -9.296875 14.15625 -8.632812 15.53125 -8.21875 C 16.90625 -7.800781 18.242188 -7.550781 19.546875 -7.46875 C 20.859375 -7.382812 22 -7.359375 22.96875 -7.390625 Z M 22.96875 -7.390625 "/></g></g></g><g fill="#ffffff" fill-opacity="1"><g transform="translate(103.952714, 204.619035)"><g><path d="M 35.984375 -9.703125 L 35.984375 -22.46875 L 25.734375 -1.90625 C 25.671875 -1.707031 25.519531 -1.609375 25.28125 -1.609375 L 19.09375 -1.609375 C 18.832031 -1.609375 18.664062 -1.707031 18.59375 -1.90625 L 7.6875 -23.015625 L 7.6875 -0.453125 C 7.6875 -0.148438 7.503906 0 7.140625 0 L 0.5 0 C 0.164062 0 0 -0.148438 0 -0.453125 L 0 -39.765625 C 0 -40.066406 0.164062 -40.21875 0.5 -40.21875 L 7.234375 -40.21875 C 7.503906 -40.21875 7.671875 -40.113281 7.734375 -39.90625 L 22.171875 -10.453125 L 35.890625 -39.90625 C 36.023438 -40.113281 36.207031 -40.21875 36.4375 -40.21875 L 43.078125 -40.21875 C 43.441406 -40.21875 43.625 -40.066406 43.625 -39.765625 L 43.625 -9.703125 Z M 35.984375 -9.703125 "/></g></g></g><g fill="#000000" fill-opacity="1"><g transform="translate(185.880974, 156.009958)"><g><path d="M 8.953125 0 L 8.28125 -1.9375 L 3.84375 -1.9375 L 3.171875 0 L 0.4375 0 L 3.96875 -10.34375 L 8.171875 -10.34375 L 11.703125 0 Z M 4.546875 -4.015625 L 7.59375 -4.015625 L 6.0625 -8.4375 Z M 4.546875 -4.015625 "/></g></g></g><g fill="#000000" fill-opacity="1"><g transform="translate(197.301262, 156.009958)"><g><path d="M 0.34375 -2.5 L 2.765625 -2.5 C 2.796875 -2.175781 2.941406 -1.90625 3.203125 -1.6875 C 3.472656 -1.46875 3.859375 -1.359375 4.359375 -1.359375 C 4.785156 -1.359375 5.09375 -1.421875 5.28125 -1.546875 C 5.46875 -1.671875 5.5625 -1.847656 5.5625 -2.078125 C 5.5625 -2.273438 5.5 -2.445312 5.375 -2.59375 C 5.257812 -2.75 4.976562 -2.851562 4.53125 -2.90625 L 2.875 -3.09375 C 2.113281 -3.175781 1.535156 -3.414062 1.140625 -3.8125 C 0.753906 -4.21875 0.5625 -4.753906 0.5625 -5.421875 C 0.5625 -6.046875 0.722656 -6.546875 1.046875 -6.921875 C 1.367188 -7.304688 1.804688 -7.582031 2.359375 -7.75 C 2.910156 -7.925781 3.535156 -8.015625 4.234375 -8.015625 C 5.304688 -8.015625 6.1875 -7.816406 6.875 -7.421875 C 7.5625 -7.035156 7.941406 -6.382812 8.015625 -5.46875 L 5.59375 -5.46875 C 5.550781 -5.769531 5.421875 -6.003906 5.203125 -6.171875 C 4.984375 -6.347656 4.664062 -6.4375 4.25 -6.4375 C 3.800781 -6.4375 3.476562 -6.363281 3.28125 -6.21875 C 3.09375 -6.070312 3 -5.890625 3 -5.671875 C 3 -5.503906 3.0625 -5.351562 3.1875 -5.21875 C 3.3125 -5.09375 3.554688 -5.007812 3.921875 -4.96875 L 5.515625 -4.8125 C 6.441406 -4.71875 7.101562 -4.476562 7.5 -4.09375 C 7.90625 -3.707031 8.109375 -3.140625 8.109375 -2.390625 C 8.109375 -1.898438 7.992188 -1.453125 7.765625 -1.046875 C 7.535156 -0.648438 7.140625 -0.332031 6.578125 -0.09375 C 6.023438 0.132812 5.269531 0.25 4.3125 0.25 C 3.363281 0.25 2.601562 0.117188 2.03125 -0.140625 C 1.457031 -0.398438 1.035156 -0.738281 0.765625 -1.15625 C 0.503906 -1.570312 0.363281 -2.019531 0.34375 -2.5 Z M 0.34375 -2.5 "/></g></g></g><g fill="#000000" fill-opacity="1"><g transform="translate(205.116715, 156.009958)"><g><path d="M 0.34375 -2.5 L 2.765625 -2.5 C 2.796875 -2.175781 2.941406 -1.90625 3.203125 -1.6875 C 3.472656 -1.46875 3.859375 -1.359375 4.359375 -1.359375 C 4.785156 -1.359375 5.09375 -1.421875 5.28125 -1.546875 C 5.46875 -1.671875 5.5625 -1.847656 5.5625 -2.078125 C 5.5625 -2.273438 5.5 -2.445312 5.375 -2.59375 C 5.257812 -2.75 4.976562 -2.851562 4.53125 -2.90625 L 2.875 -3.09375 C 2.113281 -3.175781 1.535156 -3.414062 1.140625 -3.8125 C 0.753906 -4.21875 0.5625 -4.753906 0.5625 -5.421875 C 0.5625 -6.046875 0.722656 -6.546875 1.046875 -6.921875 C 1.367188 -7.304688 1.804688 -7.582031 2.359375 -7.75 C 2.910156 -7.925781 3.535156 -8.015625 4.234375 -8.015625 C 5.304688 -8.015625 6.1875 -7.816406 6.875 -7.421875 C 7.5625 -7.035156 7.941406 -6.382812 8.015625 -5.46875 L 5.59375 -5.46875 C 5.550781 -5.769531 5.421875 -6.003906 5.203125 -6.171875 C 4.984375 -6.347656 4.664062 -6.4375 4.25 -6.4375 C 3.800781 -6.4375 3.476562 -6.363281 3.28125 -6.21875 C 3.09375 -6.070312 3 -5.890625 3 -5.671875 C 3 -5.503906 3.0625 -5.351562 3.1875 -5.21875 C 3.3125 -5.09375 3.554688 -5.007812 3.921875 -4.96875 L 5.515625 -4.8125 C 6.441406 -4.71875 7.101562 -4.476562 7.5 -4.09375 C 7.90625 -3.707031 8.109375 -3.140625 8.109375 -2.390625 C 8.109375 -1.898438 7.992188 -1.453125 7.765625 -1.046875 C 7.535156 -0.648438 7.140625 -0.332031 6.578125 -0.09375 C 6.023438 0.132812 5.269531 0.25 4.3125 0.25 C 3.363281 0.25 2.601562 0.117188 2.03125 -0.140625 C 1.457031 -0.398438 1.035156 -0.738281 0.765625 -1.15625 C 0.503906 -1.570312 0.363281 -2.019531 0.34375 -2.5 Z M 0.34375 -2.5 "/></g></g></g><g fill="#000000" fill-opacity="1"><g transform="translate(212.932169, 156.009958)"><g><path d="M 4.953125 0.25 C 4.140625 0.25 3.445312 0.132812 2.875 -0.09375 C 2.300781 -0.320312 1.84375 -0.628906 1.5 -1.015625 C 1.15625 -1.410156 0.90625 -1.851562 0.75 -2.34375 C 0.59375 -2.84375 0.515625 -3.359375 0.515625 -3.890625 C 0.515625 -4.398438 0.59375 -4.898438 0.75 -5.390625 C 0.90625 -5.890625 1.15625 -6.335938 1.5 -6.734375 C 1.84375 -7.128906 2.300781 -7.441406 2.875 -7.671875 C 3.445312 -7.898438 4.140625 -8.015625 4.953125 -8.015625 C 5.785156 -8.015625 6.484375 -7.898438 7.046875 -7.671875 C 7.609375 -7.441406 8.066406 -7.128906 8.421875 -6.734375 C 8.773438 -6.335938 9.03125 -5.890625 9.1875 -5.390625 C 9.34375 -4.898438 9.421875 -4.398438 9.421875 -3.890625 C 9.421875 -3.367188 9.34375 -2.859375 9.1875 -2.359375 C 9.03125 -1.867188 8.773438 -1.425781 8.421875 -1.03125 C 8.066406 -0.644531 7.609375 -0.332031 7.046875 -0.09375 C 6.484375 0.132812 5.785156 0.25 4.953125 0.25 Z M 3.1875 -3.890625 C 3.1875 -3.109375 3.320312 -2.566406 3.59375 -2.265625 C 3.875 -1.972656 4.328125 -1.828125 4.953125 -1.828125 C 5.597656 -1.828125 6.054688 -1.972656 6.328125 -2.265625 C 6.597656 -2.566406 6.734375 -3.109375 6.734375 -3.890625 C 6.734375 -4.660156 6.597656 -5.191406 6.328125 -5.484375 C 6.054688 -5.785156 5.597656 -5.9375 4.953125 -5.9375 C 4.328125 -5.9375 3.875 -5.785156 3.59375 -5.484375 C 3.320312 -5.191406 3.1875 -4.660156 3.1875 -3.890625 Z M 3.1875 -3.890625 "/></g></g></g><g fill="#000000" fill-opacity="1"><g transform="translate(222.146053, 156.009958)"><g><path d="M 0.515625 -3.890625 C 0.515625 -4.410156 0.59375 -4.914062 0.75 -5.40625 C 0.914062 -5.90625 1.164062 -6.351562 1.5 -6.75 C 1.84375 -7.144531 2.296875 -7.453125 2.859375 -7.671875 C 3.421875 -7.898438 4.101562 -8.015625 4.90625 -8.015625 C 5.851562 -8.015625 6.632812 -7.859375 7.25 -7.546875 C 7.863281 -7.234375 8.328125 -6.804688 8.640625 -6.265625 C 8.960938 -5.734375 9.132812 -5.144531 9.15625 -4.5 L 6.53125 -4.5 C 6.488281 -4.945312 6.34375 -5.296875 6.09375 -5.546875 C 5.84375 -5.804688 5.457031 -5.9375 4.9375 -5.9375 C 4.382812 -5.9375 3.953125 -5.785156 3.640625 -5.484375 C 3.335938 -5.191406 3.1875 -4.660156 3.1875 -3.890625 C 3.1875 -3.109375 3.332031 -2.566406 3.625 -2.265625 C 3.925781 -1.972656 4.347656 -1.828125 4.890625 -1.828125 C 5.441406 -1.828125 5.847656 -1.960938 6.109375 -2.234375 C 6.367188 -2.515625 6.519531 -2.867188 6.5625 -3.296875 L 9.1875 -3.296875 C 9.164062 -2.679688 9 -2.101562 8.6875 -1.5625 C 8.382812 -1.019531 7.925781 -0.582031 7.3125 -0.25 C 6.695312 0.0820312 5.90625 0.25 4.9375 0.25 C 4.132812 0.25 3.453125 0.132812 2.890625 -0.09375 C 2.328125 -0.320312 1.867188 -0.628906 1.515625 -1.015625 C 1.171875 -1.410156 0.914062 -1.851562 0.75 -2.34375 C 0.59375 -2.84375 0.515625 -3.359375 0.515625 -3.890625 Z M 0.515625 -3.890625 "/></g></g></g><g fill="#000000" fill-opacity="1"><g transform="translate(231.064706, 156.009958)"><g><path d="M 0.75 -8.71875 L 0.75 -10.34375 L 3.515625 -10.34375 L 3.515625 -8.71875 Z M 0.796875 0 L 0.796875 -7.765625 L 3.46875 -7.765625 L 3.46875 0 Z M 0.796875 0 "/></g></g></g><g fill="#000000" fill-opacity="1"><g transform="translate(234.638261, 156.009958)"><g><path d="M 3.171875 0.203125 C 2.390625 0.203125 1.765625 0 1.296875 -0.40625 C 0.828125 -0.820312 0.59375 -1.367188 0.59375 -2.046875 C 0.59375 -2.460938 0.664062 -2.832031 0.8125 -3.15625 C 0.957031 -3.476562 1.21875 -3.75 1.59375 -3.96875 C 1.976562 -4.195312 2.53125 -4.367188 3.25 -4.484375 L 5 -4.78125 C 5.363281 -4.84375 5.601562 -4.925781 5.71875 -5.03125 C 5.84375 -5.144531 5.90625 -5.300781 5.90625 -5.5 C 5.90625 -5.738281 5.820312 -5.921875 5.65625 -6.046875 C 5.488281 -6.179688 5.179688 -6.25 4.734375 -6.25 C 3.828125 -6.25 3.363281 -5.894531 3.34375 -5.1875 L 0.75 -5.1875 C 0.789062 -6.019531 1.15625 -6.695312 1.84375 -7.21875 C 2.53125 -7.75 3.484375 -8.015625 4.703125 -8.015625 C 5.941406 -8.015625 6.863281 -7.773438 7.46875 -7.296875 C 8.070312 -6.816406 8.375 -6.128906 8.375 -5.234375 L 8.375 -2.140625 C 8.375 -1.359375 8.421875 -0.644531 8.515625 0 L 6.21875 0 C 6.175781 -0.226562 6.144531 -0.472656 6.125 -0.734375 C 6.101562 -1.003906 6.09375 -1.296875 6.09375 -1.609375 C 5.894531 -1.046875 5.554688 -0.601562 5.078125 -0.28125 C 4.597656 0.0390625 3.960938 0.203125 3.171875 0.203125 Z M 4.1875 -1.546875 C 4.6875 -1.546875 5.097656 -1.722656 5.421875 -2.078125 C 5.742188 -2.429688 5.90625 -2.957031 5.90625 -3.65625 L 5.90625 -3.953125 C 5.71875 -3.816406 5.523438 -3.710938 5.328125 -3.640625 C 5.140625 -3.578125 4.925781 -3.515625 4.6875 -3.453125 L 4.25 -3.34375 C 3.875 -3.25 3.609375 -3.128906 3.453125 -2.984375 C 3.296875 -2.835938 3.21875 -2.628906 3.21875 -2.359375 C 3.21875 -2.085938 3.3125 -1.882812 3.5 -1.75 C 3.6875 -1.613281 3.914062 -1.546875 4.1875 -1.546875 Z M 4.1875 -1.546875 "/></g></g></g><g fill="#000000" fill-opacity="1"><g transform="translate(243.10631, 156.009958)"><g><path d="M 4.625 0 C 3.832031 0 3.207031 -0.113281 2.75 -0.34375 C 2.289062 -0.582031 1.96875 -0.925781 1.78125 -1.375 C 1.59375 -1.832031 1.5 -2.394531 1.5 -3.0625 L 1.5 -5.765625 L 0.125 -5.765625 L 0.125 -7.015625 L 1.703125 -7.71875 L 2.8125 -9.65625 L 4.171875 -9.65625 L 4.171875 -7.765625 L 6.28125 -7.765625 L 6.28125 -5.765625 L 4.171875 -5.765625 L 4.171875 -2.109375 L 6.03125 -2.109375 L 6.03125 0 Z M 4.625 0 "/></g></g></g><g fill="#000000" fill-opacity="1"><g transform="translate(249.08827, 156.009958)"><g><path d="M 0.75 -8.71875 L 0.75 -10.34375 L 3.515625 -10.34375 L 3.515625 -8.71875 Z M 0.796875 0 L 0.796875 -7.765625 L 3.46875 -7.765625 L 3.46875 0 Z M 0.796875 0 "/></g></g></g><g fill="#000000" fill-opacity="1"><g transform="translate(252.661825, 156.009958)"><g><path d="M 4.953125 0.25 C 4.140625 0.25 3.445312 0.132812 2.875 -0.09375 C 2.300781 -0.320312 1.84375 -0.628906 1.5 -1.015625 C 1.15625 -1.410156 0.90625 -1.851562 0.75 -2.34375 C 0.59375 -2.84375 0.515625 -3.359375 0.515625 -3.890625 C 0.515625 -4.398438 0.59375 -4.898438 0.75 -5.390625 C 0.90625 -5.890625 1.15625 -6.335938 1.5 -6.734375 C 1.84375 -7.128906 2.300781 -7.441406 2.875 -7.671875 C 3.445312 -7.898438 4.140625 -8.015625 4.953125 -8.015625 C 5.785156 -8.015625 6.484375 -7.898438 7.046875 -7.671875 C 7.609375 -7.441406 8.066406 -7.128906 8.421875 -6.734375 C 8.773438 -6.335938 9.03125 -5.890625 9.1875 -5.390625 C 9.34375 -4.898438 9.421875 -4.398438 9.421875 -3.890625 C 9.421875 -3.367188 9.34375 -2.859375 9.1875 -2.359375 C 9.03125 -1.867188 8.773438 -1.425781 8.421875 -1.03125 C 8.066406 -0.644531 7.609375 -0.332031 7.046875 -0.09375 C 6.484375 0.132812 5.785156 0.25 4.953125 0.25 Z M 3.1875 -3.890625 C 3.1875 -3.109375 3.320312 -2.566406 3.59375 -2.265625 C 3.875 -1.972656 4.328125 -1.828125 4.953125 -1.828125 C 5.597656 -1.828125 6.054688 -1.972656 6.328125 -2.265625 C 6.597656 -2.566406 6.734375 -3.109375 6.734375 -3.890625 C 6.734375 -4.660156 6.597656 -5.191406 6.328125 -5.484375 C 6.054688 -5.785156 5.597656 -5.9375 4.953125 -5.9375 C 4.328125 -5.9375 3.875 -5.785156 3.59375 -5.484375 C 3.320312 -5.191406 3.1875 -4.660156 3.1875 -3.890625 Z M 3.1875 -3.890625 "/></g></g></g><g fill="#000000" fill-opacity="1"><g transform="translate(261.875707, 156.009958)"><g><path d="M 6.265625 -8.015625 C 7.273438 -8.015625 8.015625 -7.71875 8.484375 -7.125 C 8.953125 -6.539062 9.1875 -5.738281 9.1875 -4.71875 L 9.1875 0 L 6.515625 0 L 6.515625 -4.28125 C 6.515625 -4.789062 6.40625 -5.179688 6.1875 -5.453125 C 5.96875 -5.722656 5.625 -5.859375 5.15625 -5.859375 C 4.625 -5.859375 4.207031 -5.679688 3.90625 -5.328125 C 3.613281 -4.972656 3.46875 -4.414062 3.46875 -3.65625 L 3.46875 0 L 0.796875 0 L 0.796875 -7.765625 L 3.46875 -7.765625 L 3.46875 -6.328125 C 3.726562 -6.847656 4.082031 -7.257812 4.53125 -7.5625 C 4.988281 -7.863281 5.566406 -8.015625 6.265625 -8.015625 Z M 6.265625 -8.015625 "/></g></g></g><g fill="#000000" fill-opacity="1"><g transform="translate(271.074045, 156.009958)"><g/></g></g><g fill="#000000" fill-opacity="1"><g transform="translate(274.367915, 156.009958)"><g><path d="M 1.609375 0 L 1.609375 -5.765625 L 0.203125 -5.765625 L 0.203125 -7.015625 L 1.609375 -7.78125 L 1.609375 -8.296875 C 1.609375 -9.078125 1.820312 -9.703125 2.25 -10.171875 C 2.6875 -10.640625 3.394531 -10.875 4.375 -10.875 L 6.5 -10.875 L 6.5 -8.953125 L 3.890625 -8.953125 L 3.890625 -7.765625 L 6.109375 -7.765625 L 6.109375 -5.765625 L 4.296875 -5.765625 L 4.296875 0 Z M 1.609375 0 "/></g></g></g><g fill="#000000" fill-opacity="1"><g transform="translate(280.163419, 156.009958)"><g><path d="M 4.953125 0.25 C 4.140625 0.25 3.445312 0.132812 2.875 -0.09375 C 2.300781 -0.320312 1.84375 -0.628906 1.5 -1.015625 C 1.15625 -1.410156 0.90625 -1.851562 0.75 -2.34375 C 0.59375 -2.84375 0.515625 -3.359375 0.515625 -3.890625 C 0.515625 -4.398438 0.59375 -4.898438 0.75 -5.390625 C 0.90625 -5.890625 1.15625 -6.335938 1.5 -6.734375 C 1.84375 -7.128906 2.300781 -7.441406 2.875 -7.671875 C 3.445312 -7.898438 4.140625 -8.015625 4.953125 -8.015625 C 5.785156 -8.015625 6.484375 -7.898438 7.046875 -7.671875 C 7.609375 -7.441406 8.066406 -7.128906 8.421875 -6.734375 C 8.773438 -6.335938 9.03125 -5.890625 9.1875 -5.390625 C 9.34375 -4.898438 9.421875 -4.398438 9.421875 -3.890625 C 9.421875 -3.367188 9.34375 -2.859375 9.1875 -2.359375 C 9.03125 -1.867188 8.773438 -1.425781 8.421875 -1.03125 C 8.066406 -0.644531 7.609375 -0.332031 7.046875 -0.09375 C 6.484375 0.132812 5.785156 0.25 4.953125 0.25 Z M 3.1875 -3.890625 C 3.1875 -3.109375 3.320312 -2.566406 3.59375 -2.265625 C 3.875 -1.972656 4.328125 -1.828125 4.953125 -1.828125 C 5.597656 -1.828125 6.054688 -1.972656 6.328125 -2.265625 C 6.597656 -2.566406 6.734375 -3.109375 6.734375 -3.890625 C 6.734375 -4.660156 6.597656 -5.191406 6.328125 -5.484375 C 6.054688 -5.785156 5.597656 -5.9375 4.953125 -5.9375 C 4.328125 -5.9375 3.875 -5.785156 3.59375 -5.484375 C 3.320312 -5.191406 3.1875 -4.660156 3.1875 -3.890625 Z M 3.1875 -3.890625 "/></g></g></g><g fill="#000000" fill-opacity="1"><g transform="translate(289.377301, 156.009958)"><g><path d="M 5.59375 -7.890625 L 6.25 -7.890625 L 6.25 -5.296875 L 5.296875 -5.296875 C 4.660156 -5.296875 4.195312 -5.128906 3.90625 -4.796875 C 3.613281 -4.460938 3.46875 -3.898438 3.46875 -3.109375 L 3.46875 0 L 0.796875 0 L 0.796875 -7.765625 L 3.390625 -7.765625 L 3.390625 -6.1875 C 3.546875 -6.738281 3.796875 -7.160156 4.140625 -7.453125 C 4.484375 -7.742188 4.96875 -7.890625 5.59375 -7.890625 Z M 5.59375 -7.890625 "/></g></g></g><g fill="#000000" fill-opacity="1"><g transform="translate(185.880974, 173.555479)"><g><path d="M 6.109375 0.25 C 5.117188 0.25 4.269531 0.101562 3.5625 -0.1875 C 2.863281 -0.488281 2.296875 -0.890625 1.859375 -1.390625 C 1.429688 -1.890625 1.117188 -2.460938 0.921875 -3.109375 C 0.722656 -3.765625 0.625 -4.445312 0.625 -5.15625 C 0.625 -5.851562 0.722656 -6.523438 0.921875 -7.171875 C 1.128906 -7.816406 1.445312 -8.398438 1.875 -8.921875 C 2.3125 -9.441406 2.878906 -9.851562 3.578125 -10.15625 C 4.285156 -10.457031 5.132812 -10.609375 6.125 -10.609375 C 7.351562 -10.609375 8.347656 -10.441406 9.109375 -10.109375 C 9.878906 -9.785156 10.453125 -9.296875 10.828125 -8.640625 C 11.203125 -7.984375 11.425781 -7.15625 11.5 -6.15625 L 8.6875 -6.15625 C 8.625 -6.863281 8.414062 -7.40625 8.0625 -7.78125 C 7.707031 -8.164062 7.078125 -8.359375 6.171875 -8.359375 C 5.222656 -8.359375 4.535156 -8.09375 4.109375 -7.5625 C 3.691406 -7.03125 3.484375 -6.226562 3.484375 -5.15625 C 3.484375 -4.113281 3.679688 -3.320312 4.078125 -2.78125 C 4.484375 -2.238281 5.15625 -1.96875 6.09375 -1.96875 C 7.019531 -1.96875 7.675781 -2.160156 8.0625 -2.546875 C 8.445312 -2.929688 8.664062 -3.503906 8.71875 -4.265625 L 11.5625 -4.265625 C 11.476562 -3.203125 11.25 -2.335938 10.875 -1.671875 C 10.5 -1.015625 9.925781 -0.53125 9.15625 -0.21875 C 8.382812 0.09375 7.367188 0.25 6.109375 0.25 Z M 6.109375 0.25 "/></g></g></g><g fill="#000000" fill-opacity="1"><g transform="translate(197.285726, 173.555479)"><g><path d="M 4.953125 0.25 C 4.140625 0.25 3.445312 0.132812 2.875 -0.09375 C 2.300781 -0.320312 1.84375 -0.628906 1.5 -1.015625 C 1.15625 -1.410156 0.90625 -1.851562 0.75 -2.34375 C 0.59375 -2.84375 0.515625 -3.359375 0.515625 -3.890625 C 0.515625 -4.398438 0.59375 -4.898438 0.75 -5.390625 C 0.90625 -5.890625 1.15625 -6.335938 1.5 -6.734375 C 1.84375 -7.128906 2.300781 -7.441406 2.875 -7.671875 C 3.445312 -7.898438 4.140625 -8.015625 4.953125 -8.015625 C 5.785156 -8.015625 6.484375 -7.898438 7.046875 -7.671875 C 7.609375 -7.441406 8.066406 -7.128906 8.421875 -6.734375 C 8.773438 -6.335938 9.03125 -5.890625 9.1875 -5.390625 C 9.34375 -4.898438 9.421875 -4.398438 9.421875 -3.890625 C 9.421875 -3.367188 9.34375 -2.859375 9.1875 -2.359375 C 9.03125 -1.867188 8.773438 -1.425781 8.421875 -1.03125 C 8.066406 -0.644531 7.609375 -0.332031 7.046875 -0.09375 C 6.484375 0.132812 5.785156 0.25 4.953125 0.25 Z M 3.1875 -3.890625 C 3.1875 -3.109375 3.320312 -2.566406 3.59375 -2.265625 C 3.875 -1.972656 4.328125 -1.828125 4.953125 -1.828125 C 5.597656 -1.828125 6.054688 -1.972656 6.328125 -2.265625 C 6.597656 -2.566406 6.734375 -3.109375 6.734375 -3.890625 C 6.734375 -4.660156 6.597656 -5.191406 6.328125 -5.484375 C 6.054688 -5.785156 5.597656 -5.9375 4.953125 -5.9375 C 4.328125 -5.9375 3.875 -5.785156 3.59375 -5.484375 C 3.320312 -5.191406 3.1875 -4.660156 3.1875 -3.890625 Z M 3.1875 -3.890625 "/></g></g></g><g fill="#000000" fill-opacity="1"><g transform="translate(206.499611, 173.555479)"><g><path d="M 11.421875 -8.015625 C 12.441406 -8.015625 13.191406 -7.71875 13.671875 -7.125 C 14.148438 -6.539062 14.390625 -5.738281 14.390625 -4.71875 L 14.390625 0 L 11.71875 0 L 11.71875 -4.328125 C 11.71875 -4.816406 11.613281 -5.191406 11.40625 -5.453125 C 11.207031 -5.722656 10.890625 -5.859375 10.453125 -5.859375 C 9.921875 -5.859375 9.53125 -5.679688 9.28125 -5.328125 C 9.03125 -4.972656 8.90625 -4.414062 8.90625 -3.65625 L 8.90625 0 L 6.28125 0 L 6.28125 -4.328125 C 6.28125 -4.816406 6.175781 -5.191406 5.96875 -5.453125 C 5.769531 -5.722656 5.445312 -5.859375 5 -5.859375 C 4.488281 -5.859375 4.101562 -5.679688 3.84375 -5.328125 C 3.59375 -4.972656 3.46875 -4.414062 3.46875 -3.65625 L 3.46875 0 L 0.796875 0 L 0.796875 -7.765625 L 3.46875 -7.765625 L 3.46875 -6.453125 C 3.707031 -6.941406 4.039062 -7.320312 4.46875 -7.59375 C 4.894531 -7.875 5.441406 -8.015625 6.109375 -8.015625 C 6.785156 -8.015625 7.332031 -7.863281 7.75 -7.5625 C 8.164062 -7.269531 8.472656 -6.847656 8.671875 -6.296875 C 8.910156 -6.816406 9.253906 -7.234375 9.703125 -7.546875 C 10.148438 -7.859375 10.722656 -8.015625 11.421875 -8.015625 Z M 11.421875 -8.015625 "/></g></g></g><g fill="#000000" fill-opacity="1"><g transform="translate(220.903211, 173.555479)"><g><path d="M 6.171875 -8.015625 C 7.023438 -8.015625 7.710938 -7.828125 8.234375 -7.453125 C 8.753906 -7.078125 9.132812 -6.570312 9.375 -5.9375 C 9.613281 -5.300781 9.734375 -4.613281 9.734375 -3.875 C 9.734375 -3.15625 9.613281 -2.484375 9.375 -1.859375 C 9.132812 -1.234375 8.753906 -0.722656 8.234375 -0.328125 C 7.710938 0.0546875 7.023438 0.25 6.171875 0.25 C 5.503906 0.25 4.945312 0.128906 4.5 -0.109375 C 4.0625 -0.347656 3.707031 -0.675781 3.4375 -1.09375 L 3.4375 3.109375 L 0.765625 3.109375 L 0.765625 -7.765625 L 3.4375 -7.765625 L 3.4375 -6.71875 C 3.707031 -7.132812 4.0625 -7.453125 4.5 -7.671875 C 4.945312 -7.898438 5.503906 -8.015625 6.171875 -8.015625 Z M 5.265625 -1.828125 C 5.929688 -1.828125 6.394531 -1.988281 6.65625 -2.3125 C 6.925781 -2.632812 7.0625 -3.160156 7.0625 -3.890625 C 7.0625 -4.609375 6.925781 -5.128906 6.65625 -5.453125 C 6.394531 -5.773438 5.929688 -5.9375 5.265625 -5.9375 C 4.585938 -5.9375 4.113281 -5.765625 3.84375 -5.421875 C 3.570312 -5.085938 3.4375 -4.578125 3.4375 -3.890625 C 3.4375 -3.191406 3.570312 -2.671875 3.84375 -2.328125 C 4.113281 -1.992188 4.585938 -1.828125 5.265625 -1.828125 Z M 5.265625 -1.828125 "/></g></g></g><g fill="#000000" fill-opacity="1"><g transform="translate(230.412317, 173.555479)"><g><path d="M 6.4375 -7.765625 L 9.109375 -7.765625 L 9.109375 0 L 6.4375 0 L 6.4375 -1.421875 C 6.1875 -0.910156 5.832031 -0.503906 5.375 -0.203125 C 4.925781 0.0976562 4.363281 0.25 3.6875 0.25 C 2.664062 0.25 1.914062 -0.046875 1.4375 -0.640625 C 0.96875 -1.234375 0.734375 -2.035156 0.734375 -3.046875 L 0.734375 -7.765625 L 3.40625 -7.765625 L 3.40625 -3.515625 C 3.40625 -2.992188 3.515625 -2.59375 3.734375 -2.3125 C 3.953125 -2.039062 4.296875 -1.90625 4.765625 -1.90625 C 5.285156 -1.90625 5.691406 -2.085938 5.984375 -2.453125 C 6.285156 -2.816406 6.4375 -3.375 6.4375 -4.125 Z M 6.4375 -7.765625 "/></g></g></g><g fill="#000000" fill-opacity="1"><g transform="translate(239.610654, 173.555479)"><g><path d="M 4.625 0 C 3.832031 0 3.207031 -0.113281 2.75 -0.34375 C 2.289062 -0.582031 1.96875 -0.925781 1.78125 -1.375 C 1.59375 -1.832031 1.5 -2.394531 1.5 -3.0625 L 1.5 -5.765625 L 0.125 -5.765625 L 0.125 -7.015625 L 1.703125 -7.71875 L 2.8125 -9.65625 L 4.171875 -9.65625 L 4.171875 -7.765625 L 6.28125 -7.765625 L 6.28125 -5.765625 L 4.171875 -5.765625 L 4.171875 -2.109375 L 6.03125 -2.109375 L 6.03125 0 Z M 4.625 0 "/></g></g></g><g fill="#000000" fill-opacity="1"><g transform="translate(245.592614, 173.555479)"><g><path d="M 0.75 -8.71875 L 0.75 -10.34375 L 3.515625 -10.34375 L 3.515625 -8.71875 Z M 0.796875 0 L 0.796875 -7.765625 L 3.46875 -7.765625 L 3.46875 0 Z M 0.796875 0 "/></g></g></g><g fill="#000000" fill-opacity="1"><g transform="translate(249.166169, 173.555479)"><g><path d="M 6.265625 -8.015625 C 7.273438 -8.015625 8.015625 -7.71875 8.484375 -7.125 C 8.953125 -6.539062 9.1875 -5.738281 9.1875 -4.71875 L 9.1875 0 L 6.515625 0 L 6.515625 -4.28125 C 6.515625 -4.789062 6.40625 -5.179688 6.1875 -5.453125 C 5.96875 -5.722656 5.625 -5.859375 5.15625 -5.859375 C 4.625 -5.859375 4.207031 -5.679688 3.90625 -5.328125 C 3.613281 -4.972656 3.46875 -4.414062 3.46875 -3.65625 L 3.46875 0 L 0.796875 0 L 0.796875 -7.765625 L 3.46875 -7.765625 L 3.46875 -6.328125 C 3.726562 -6.847656 4.082031 -7.257812 4.53125 -7.5625 C 4.988281 -7.863281 5.566406 -8.015625 6.265625 -8.015625 Z M 6.265625 -8.015625 "/></g></g></g><g fill="#000000" fill-opacity="1"><g transform="translate(258.364507, 173.555479)"><g><path d="M 6.84375 -7.765625 L 9.515625 -7.765625 L 9.515625 -0.453125 C 9.515625 0.804688 9.164062 1.742188 8.46875 2.359375 C 7.78125 2.972656 6.613281 3.28125 4.96875 3.28125 C 4.039062 3.28125 3.269531 3.144531 2.65625 2.875 C 2.050781 2.613281 1.597656 2.257812 1.296875 1.8125 C 0.992188 1.363281 0.820312 0.859375 0.78125 0.296875 L 3.375 0.296875 C 3.425781 0.640625 3.585938 0.914062 3.859375 1.125 C 4.128906 1.34375 4.546875 1.453125 5.109375 1.453125 C 5.703125 1.453125 6.140625 1.332031 6.421875 1.09375 C 6.703125 0.863281 6.84375 0.488281 6.84375 -0.03125 L 6.84375 -1.421875 C 6.582031 -1.046875 6.234375 -0.753906 5.796875 -0.546875 C 5.359375 -0.335938 4.820312 -0.234375 4.1875 -0.234375 C 3.332031 -0.234375 2.640625 -0.414062 2.109375 -0.78125 C 1.578125 -1.144531 1.1875 -1.617188 0.9375 -2.203125 C 0.695312 -2.796875 0.578125 -3.4375 0.578125 -4.125 C 0.578125 -4.820312 0.695312 -5.460938 0.9375 -6.046875 C 1.1875 -6.640625 1.578125 -7.113281 2.109375 -7.46875 C 2.640625 -7.820312 3.332031 -8 4.1875 -8 C 4.820312 -8 5.359375 -7.894531 5.796875 -7.6875 C 6.234375 -7.488281 6.582031 -7.207031 6.84375 -6.84375 Z M 5.09375 -2.1875 C 5.75 -2.1875 6.203125 -2.34375 6.453125 -2.65625 C 6.710938 -2.96875 6.84375 -3.441406 6.84375 -4.078125 C 6.84375 -4.691406 6.710938 -5.15625 6.453125 -5.46875 C 6.203125 -5.78125 5.75 -5.9375 5.09375 -5.9375 C 4.4375 -5.9375 3.960938 -5.789062 3.671875 -5.5 C 3.390625 -5.21875 3.25 -4.742188 3.25 -4.078125 C 3.25 -3.398438 3.390625 -2.914062 3.671875 -2.625 C 3.960938 -2.332031 4.4375 -2.1875 5.09375 -2.1875 Z M 5.09375 -2.1875 "/></g></g></g><g fill="#000000" fill-opacity="1"><g transform="translate(267.935765, 173.555479)"><g/></g></g><g fill="#000000" fill-opacity="1"><g transform="translate(271.229636, 173.555479)"><g><path d="M 14.359375 -10.34375 L 14.359375 0 L 11.625 0 L 11.625 -8.5625 L 9.140625 0 L 6.078125 0 L 3.578125 -8.625 L 3.578125 0 L 0.84375 0 L 0.84375 -10.34375 L 5.546875 -10.34375 L 7.65625 -2.828125 L 9.765625 -10.34375 Z M 14.359375 -10.34375 "/></g></g></g><g fill="#000000" fill-opacity="1"><g transform="translate(285.726461, 173.555479)"><g><path d="M 3.171875 0.203125 C 2.390625 0.203125 1.765625 0 1.296875 -0.40625 C 0.828125 -0.820312 0.59375 -1.367188 0.59375 -2.046875 C 0.59375 -2.460938 0.664062 -2.832031 0.8125 -3.15625 C 0.957031 -3.476562 1.21875 -3.75 1.59375 -3.96875 C 1.976562 -4.195312 2.53125 -4.367188 3.25 -4.484375 L 5 -4.78125 C 5.363281 -4.84375 5.601562 -4.925781 5.71875 -5.03125 C 5.84375 -5.144531 5.90625 -5.300781 5.90625 -5.5 C 5.90625 -5.738281 5.820312 -5.921875 5.65625 -6.046875 C 5.488281 -6.179688 5.179688 -6.25 4.734375 -6.25 C 3.828125 -6.25 3.363281 -5.894531 3.34375 -5.1875 L 0.75 -5.1875 C 0.789062 -6.019531 1.15625 -6.695312 1.84375 -7.21875 C 2.53125 -7.75 3.484375 -8.015625 4.703125 -8.015625 C 5.941406 -8.015625 6.863281 -7.773438 7.46875 -7.296875 C 8.070312 -6.816406 8.375 -6.128906 8.375 -5.234375 L 8.375 -2.140625 C 8.375 -1.359375 8.421875 -0.644531 8.515625 0 L 6.21875 0 C 6.175781 -0.226562 6.144531 -0.472656 6.125 -0.734375 C 6.101562 -1.003906 6.09375 -1.296875 6.09375 -1.609375 C 5.894531 -1.046875 5.554688 -0.601562 5.078125 -0.28125 C 4.597656 0.0390625 3.960938 0.203125 3.171875 0.203125 Z M 4.1875 -1.546875 C 4.6875 -1.546875 5.097656 -1.722656 5.421875 -2.078125 C 5.742188 -2.429688 5.90625 -2.957031 5.90625 -3.65625 L 5.90625 -3.953125 C 5.71875 -3.816406 5.523438 -3.710938 5.328125 -3.640625 C 5.140625 -3.578125 4.925781 -3.515625 4.6875 -3.453125 L 4.25 -3.34375 C 3.875 -3.25 3.609375 -3.128906 3.453125 -2.984375 C 3.296875 -2.835938 3.21875 -2.628906 3.21875 -2.359375 C 3.21875 -2.085938 3.3125 -1.882812 3.5 -1.75 C 3.6875 -1.613281 3.914062 -1.546875 4.1875 -1.546875 Z M 4.1875 -1.546875 "/></g></g></g><g fill="#000000" fill-opacity="1"><g transform="translate(294.19451, 173.555479)"><g><path d="M 0.515625 -3.890625 C 0.515625 -4.410156 0.59375 -4.914062 0.75 -5.40625 C 0.914062 -5.90625 1.164062 -6.351562 1.5 -6.75 C 1.84375 -7.144531 2.296875 -7.453125 2.859375 -7.671875 C 3.421875 -7.898438 4.101562 -8.015625 4.90625 -8.015625 C 5.851562 -8.015625 6.632812 -7.859375 7.25 -7.546875 C 7.863281 -7.234375 8.328125 -6.804688 8.640625 -6.265625 C 8.960938 -5.734375 9.132812 -5.144531 9.15625 -4.5 L 6.53125 -4.5 C 6.488281 -4.945312 6.34375 -5.296875 6.09375 -5.546875 C 5.84375 -5.804688 5.457031 -5.9375 4.9375 -5.9375 C 4.382812 -5.9375 3.953125 -5.785156 3.640625 -5.484375 C 3.335938 -5.191406 3.1875 -4.660156 3.1875 -3.890625 C 3.1875 -3.109375 3.332031 -2.566406 3.625 -2.265625 C 3.925781 -1.972656 4.347656 -1.828125 4.890625 -1.828125 C 5.441406 -1.828125 5.847656 -1.960938 6.109375 -2.234375 C 6.367188 -2.515625 6.519531 -2.867188 6.5625 -3.296875 L 9.1875 -3.296875 C 9.164062 -2.679688 9 -2.101562 8.6875 -1.5625 C 8.382812 -1.019531 7.925781 -0.582031 7.3125 -0.25 C 6.695312 0.0820312 5.90625 0.25 4.9375 0.25 C 4.132812 0.25 3.453125 0.132812 2.890625 -0.09375 C 2.328125 -0.320312 1.867188 -0.628906 1.515625 -1.015625 C 1.171875 -1.410156 0.914062 -1.851562 0.75 -2.34375 C 0.59375 -2.84375 0.515625 -3.359375 0.515625 -3.890625 Z M 0.515625 -3.890625 "/></g></g></g><g fill="#000000" fill-opacity="1"><g transform="translate(303.113162, 173.555479)"><g><path d="M 6.265625 -8.015625 C 7.273438 -8.015625 8.015625 -7.71875 8.484375 -7.125 C 8.953125 -6.539062 9.1875 -5.738281 9.1875 -4.71875 L 9.1875 0 L 6.515625 0 L 6.515625 -4.28125 C 6.515625 -4.789062 6.40625 -5.179688 6.1875 -5.453125 C 5.96875 -5.722656 5.625 -5.859375 5.15625 -5.859375 C 4.625 -5.859375 4.207031 -5.679688 3.90625 -5.328125 C 3.613281 -4.972656 3.46875 -4.414062 3.46875 -3.65625 L 3.46875 0 L 0.796875 0 L 0.796875 -10.875 L 3.46875 -10.875 L 3.46875 -6.328125 C 3.726562 -6.847656 4.082031 -7.257812 4.53125 -7.5625 C 4.988281 -7.863281 5.566406 -8.015625 6.265625 -8.015625 Z M 6.265625 -8.015625 "/></g></g></g><g fill="#000000" fill-opacity="1"><g transform="translate(312.3115, 173.555479)"><g><path d="M 0.75 -8.71875 L 0.75 -10.34375 L 3.515625 -10.34375 L 3.515625 -8.71875 Z M 0.796875 0 L 0.796875 -7.765625 L 3.46875 -7.765625 L 3.46875 0 Z M 0.796875 0 "/></g></g></g><g fill="#000000" fill-opacity="1"><g transform="translate(315.885055, 173.555479)"><g><path d="M 6.265625 -8.015625 C 7.273438 -8.015625 8.015625 -7.71875 8.484375 -7.125 C 8.953125 -6.539062 9.1875 -5.738281 9.1875 -4.71875 L 9.1875 0 L 6.515625 0 L 6.515625 -4.28125 C 6.515625 -4.789062 6.40625 -5.179688 6.1875 -5.453125 C 5.96875 -5.722656 5.625 -5.859375 5.15625 -5.859375 C 4.625 -5.859375 4.207031 -5.679688 3.90625 -5.328125 C 3.613281 -4.972656 3.46875 -4.414062 3.46875 -3.65625 L 3.46875 0 L 0.796875 0 L 0.796875 -7.765625 L 3.46875 -7.765625 L 3.46875 -6.328125 C 3.726562 -6.847656 4.082031 -7.257812 4.53125 -7.5625 C 4.988281 -7.863281 5.566406 -8.015625 6.265625 -8.015625 Z M 6.265625 -8.015625 "/></g></g></g><g fill="#000000" fill-opacity="1"><g transform="translate(325.083392, 173.555479)"><g><path d="M 4.859375 -1.546875 C 5.253906 -1.546875 5.578125 -1.617188 5.828125 -1.765625 C 6.078125 -1.921875 6.253906 -2.113281 6.359375 -2.34375 L 8.953125 -2.34375 C 8.867188 -1.894531 8.675781 -1.472656 8.375 -1.078125 C 8.082031 -0.691406 7.648438 -0.375 7.078125 -0.125 C 6.503906 0.125 5.742188 0.25 4.796875 0.25 C 4.015625 0.25 3.347656 0.132812 2.796875 -0.09375 C 2.242188 -0.320312 1.800781 -0.628906 1.46875 -1.015625 C 1.132812 -1.410156 0.890625 -1.859375 0.734375 -2.359375 C 0.585938 -2.859375 0.515625 -3.375 0.515625 -3.90625 C 0.515625 -4.65625 0.664062 -5.34375 0.96875 -5.96875 C 1.269531 -6.59375 1.734375 -7.085938 2.359375 -7.453125 C 2.992188 -7.828125 3.804688 -8.015625 4.796875 -8.015625 C 5.597656 -8.015625 6.265625 -7.898438 6.796875 -7.671875 C 7.335938 -7.453125 7.765625 -7.144531 8.078125 -6.75 C 8.398438 -6.351562 8.628906 -5.90625 8.765625 -5.40625 C 8.910156 -4.90625 8.984375 -4.390625 8.984375 -3.859375 C 8.984375 -3.597656 8.96875 -3.378906 8.9375 -3.203125 L 3.109375 -3.203125 C 3.191406 -2.578125 3.378906 -2.144531 3.671875 -1.90625 C 3.972656 -1.664062 4.367188 -1.546875 4.859375 -1.546875 Z M 4.828125 -6.265625 C 4.359375 -6.265625 3.976562 -6.148438 3.6875 -5.921875 C 3.40625 -5.703125 3.222656 -5.3125 3.140625 -4.75 L 6.453125 -4.75 C 6.410156 -5.238281 6.257812 -5.613281 6 -5.875 C 5.738281 -6.132812 5.347656 -6.265625 4.828125 -6.265625 Z M 4.828125 -6.265625 "/></g></g></g><g fill="#000000" fill-opacity="1"><g transform="translate(333.846679, 173.555479)"><g><path d="M 5.59375 -7.890625 L 6.25 -7.890625 L 6.25 -5.296875 L 5.296875 -5.296875 C 4.660156 -5.296875 4.195312 -5.128906 3.90625 -4.796875 C 3.613281 -4.460938 3.46875 -3.898438 3.46875 -3.109375 L 3.46875 0 L 0.796875 0 L 0.796875 -7.765625 L 3.390625 -7.765625 L 3.390625 -6.1875 C 3.546875 -6.738281 3.796875 -7.160156 4.140625 -7.453125 C 4.484375 -7.742188 4.96875 -7.890625 5.59375 -7.890625 Z M 5.59375 -7.890625 "/></g></g></g><g fill="#000000" fill-opacity="1"><g transform="translate(339.673256, 173.555479)"><g><path d="M 6.609375 -7.765625 L 9.140625 -7.765625 L 6.671875 0.015625 C 6.460938 0.691406 6.210938 1.257812 5.921875 1.71875 C 5.628906 2.175781 5.238281 2.519531 4.75 2.75 C 4.269531 2.988281 3.617188 3.109375 2.796875 3.109375 L 0.5625 3.109375 L 0.5625 1 L 3.90625 1 L 4.3125 -0.21875 L 2.609375 -0.21875 L 0.09375 -7.765625 L 2.8125 -7.765625 L 4.328125 -3.265625 L 4.765625 -1.8125 L 5.171875 -3.265625 Z M 6.609375 -7.765625 "/></g></g></g><g fill="#000000" fill-opacity="1"><g transform="translate(185.880974, 200.221837)"><g><path d="M 0.15625 0 L 2.703125 -6.203125 L 3.421875 -6.203125 L 5.984375 0 L 5.15625 0 L 4.578125 -1.40625 L 1.546875 -1.40625 L 0.984375 0 Z M 1.859375 -2.140625 L 4.28125 -2.140625 L 3.0625 -5.109375 Z M 1.859375 -2.140625 "/></g></g></g><g fill="#000000" fill-opacity="1"><g transform="translate(191.342456, 200.221837)"><g><path d="M 0.828125 0 L 0.828125 -6.5625 L 1.5625 -6.5625 L 1.5625 0 Z M 0.828125 0 "/></g></g></g><g fill="#000000" fill-opacity="1"><g transform="translate(193.068212, 200.221837)"><g><path d="M 0.828125 0 L 0.828125 -6.5625 L 1.5625 -6.5625 L 1.5625 0 Z M 0.828125 0 "/></g></g></g><g fill="#000000" fill-opacity="1"><g transform="translate(194.793968, 200.221837)"><g><path d="M 2.8125 0.109375 C 2.351562 0.109375 1.945312 0.0078125 1.59375 -0.1875 C 1.238281 -0.394531 0.957031 -0.679688 0.75 -1.046875 C 0.550781 -1.410156 0.453125 -1.828125 0.453125 -2.296875 C 0.453125 -2.773438 0.550781 -3.195312 0.75 -3.5625 C 0.957031 -3.925781 1.238281 -4.207031 1.59375 -4.40625 C 1.957031 -4.613281 2.367188 -4.71875 2.828125 -4.71875 C 3.316406 -4.71875 3.738281 -4.597656 4.09375 -4.359375 C 4.457031 -4.128906 4.734375 -3.8125 4.921875 -3.40625 C 5.117188 -3.007812 5.207031 -2.539062 5.1875 -2 L 1.21875 -2 C 1.269531 -1.570312 1.441406 -1.226562 1.734375 -0.96875 C 2.023438 -0.707031 2.390625 -0.578125 2.828125 -0.578125 C 3.128906 -0.578125 3.398438 -0.640625 3.640625 -0.765625 C 3.890625 -0.898438 4.085938 -1.09375 4.234375 -1.34375 L 5.078125 -1.34375 C 4.890625 -0.894531 4.59375 -0.539062 4.1875 -0.28125 C 3.789062 -0.0195312 3.332031 0.109375 2.8125 0.109375 Z M 1.21875 -2.65625 L 4.453125 -2.65625 C 4.367188 -3.070312 4.179688 -3.398438 3.890625 -3.640625 C 3.597656 -3.890625 3.242188 -4.015625 2.828125 -4.015625 C 2.398438 -4.015625 2.039062 -3.890625 1.75 -3.640625 C 1.457031 -3.390625 1.28125 -3.0625 1.21875 -2.65625 Z M 1.21875 -2.65625 "/></g></g></g><g fill="#000000" fill-opacity="1"><g transform="translate(199.759713, 200.221837)"><g><path d="M 2.875 1.890625 C 2.289062 1.890625 1.800781 1.742188 1.40625 1.453125 C 1.019531 1.171875 0.785156 0.785156 0.703125 0.296875 L 1.46875 0.296875 C 1.53125 0.566406 1.6875 0.785156 1.9375 0.953125 C 2.1875 1.117188 2.5 1.203125 2.875 1.203125 C 3.363281 1.203125 3.738281 1.070312 4 0.8125 C 4.269531 0.550781 4.40625 0.179688 4.40625 -0.296875 L 4.40625 -0.71875 C 4.207031 -0.507812 3.960938 -0.34375 3.671875 -0.21875 C 3.390625 -0.101562 3.082031 -0.046875 2.75 -0.046875 C 2.3125 -0.046875 1.921875 -0.144531 1.578125 -0.34375 C 1.234375 -0.550781 0.957031 -0.828125 0.75 -1.171875 C 0.550781 -1.523438 0.453125 -1.929688 0.453125 -2.390625 C 0.453125 -2.835938 0.550781 -3.234375 0.75 -3.578125 C 0.957031 -3.929688 1.234375 -4.207031 1.578125 -4.40625 C 1.921875 -4.613281 2.3125 -4.71875 2.75 -4.71875 C 3.101562 -4.71875 3.425781 -4.648438 3.71875 -4.515625 C 4.007812 -4.390625 4.253906 -4.210938 4.453125 -3.984375 L 4.53125 -4.59375 L 5.140625 -4.59375 L 5.140625 -0.265625 C 5.140625 0.160156 5.046875 0.535156 4.859375 0.859375 C 4.679688 1.191406 4.421875 1.445312 4.078125 1.625 C 3.742188 1.800781 3.34375 1.890625 2.875 1.890625 Z M 1.203125 -2.390625 C 1.203125 -2.066406 1.269531 -1.78125 1.40625 -1.53125 C 1.550781 -1.289062 1.742188 -1.101562 1.984375 -0.96875 C 2.234375 -0.832031 2.515625 -0.765625 2.828125 -0.765625 C 3.148438 -0.765625 3.429688 -0.832031 3.671875 -0.96875 C 3.921875 -1.101562 4.113281 -1.289062 4.25 -1.53125 C 4.394531 -1.78125 4.46875 -2.066406 4.46875 -2.390625 C 4.46875 -2.703125 4.394531 -2.976562 4.25 -3.21875 C 4.113281 -3.457031 3.921875 -3.644531 3.671875 -3.78125 C 3.429688 -3.925781 3.148438 -4 2.828125 -4 C 2.515625 -4 2.234375 -3.925781 1.984375 -3.78125 C 1.742188 -3.644531 1.550781 -3.457031 1.40625 -3.21875 C 1.269531 -2.976562 1.203125 -2.703125 1.203125 -2.390625 Z M 1.203125 -2.390625 "/></g></g></g><g fill="#000000" fill-opacity="1"><g transform="translate(205.061847, 200.221837)"><g><path d="M 0.828125 0 L 0.828125 -6.5625 L 1.5625 -6.5625 L 1.5625 -4 C 1.769531 -4.25 2.007812 -4.429688 2.28125 -4.546875 C 2.5625 -4.660156 2.847656 -4.71875 3.140625 -4.71875 C 3.753906 -4.71875 4.226562 -4.523438 4.5625 -4.140625 C 4.90625 -3.765625 5.078125 -3.25 5.078125 -2.59375 L 5.078125 0 L 4.34375 0 L 4.34375 -2.515625 C 4.34375 -2.972656 4.226562 -3.332031 4 -3.59375 C 3.769531 -3.863281 3.453125 -4 3.046875 -4 C 2.617188 -4 2.265625 -3.847656 1.984375 -3.546875 C 1.703125 -3.253906 1.5625 -2.851562 1.5625 -2.34375 L 1.5625 0 Z M 0.828125 0 "/></g></g></g><g fill="#000000" fill-opacity="1"><g transform="translate(210.213496, 200.221837)"><g><path d="M 2.8125 0.109375 C 2.351562 0.109375 1.945312 0.0078125 1.59375 -0.1875 C 1.238281 -0.394531 0.957031 -0.679688 0.75 -1.046875 C 0.550781 -1.410156 0.453125 -1.828125 0.453125 -2.296875 C 0.453125 -2.773438 0.550781 -3.195312 0.75 -3.5625 C 0.957031 -3.925781 1.238281 -4.207031 1.59375 -4.40625 C 1.957031 -4.613281 2.367188 -4.71875 2.828125 -4.71875 C 3.316406 -4.71875 3.738281 -4.597656 4.09375 -4.359375 C 4.457031 -4.128906 4.734375 -3.8125 4.921875 -3.40625 C 5.117188 -3.007812 5.207031 -2.539062 5.1875 -2 L 1.21875 -2 C 1.269531 -1.570312 1.441406 -1.226562 1.734375 -0.96875 C 2.023438 -0.707031 2.390625 -0.578125 2.828125 -0.578125 C 3.128906 -0.578125 3.398438 -0.640625 3.640625 -0.765625 C 3.890625 -0.898438 4.085938 -1.09375 4.234375 -1.34375 L 5.078125 -1.34375 C 4.890625 -0.894531 4.59375 -0.539062 4.1875 -0.28125 C 3.789062 -0.0195312 3.332031 0.109375 2.8125 0.109375 Z M 1.21875 -2.65625 L 4.453125 -2.65625 C 4.367188 -3.070312 4.179688 -3.398438 3.890625 -3.640625 C 3.597656 -3.890625 3.242188 -4.015625 2.828125 -4.015625 C 2.398438 -4.015625 2.039062 -3.890625 1.75 -3.640625 C 1.457031 -3.390625 1.28125 -3.0625 1.21875 -2.65625 Z M 1.21875 -2.65625 "/></g></g></g><g fill="#000000" fill-opacity="1"><g transform="translate(215.179241, 200.221837)"><g><path d="M 0.828125 0 L 0.828125 -4.59375 L 1.4375 -4.59375 L 1.515625 -3.921875 C 1.710938 -4.203125 1.953125 -4.40625 2.234375 -4.53125 C 2.523438 -4.65625 2.828125 -4.71875 3.140625 -4.71875 C 3.753906 -4.71875 4.226562 -4.519531 4.5625 -4.125 C 4.90625 -3.738281 5.078125 -3.21875 5.078125 -2.5625 L 5.078125 0 L 4.34375 0 L 4.34375 -2.484375 C 4.34375 -2.953125 4.222656 -3.320312 3.984375 -3.59375 C 3.753906 -3.863281 3.4375 -4 3.03125 -4 C 2.75 -4 2.5 -3.929688 2.28125 -3.796875 C 2.0625 -3.660156 1.882812 -3.460938 1.75 -3.203125 C 1.625 -2.953125 1.5625 -2.660156 1.5625 -2.328125 L 1.5625 0 Z M 0.828125 0 "/></g></g></g><g fill="#000000" fill-opacity="1"><g transform="translate(220.330889, 200.221837)"><g><path d="M 0.671875 1.765625 L 0.671875 1.078125 L 1.109375 1.078125 C 1.410156 1.078125 1.628906 1.03125 1.765625 0.9375 C 1.898438 0.851562 2.015625 0.6875 2.109375 0.4375 L 2.328125 -0.109375 L 0.140625 -4.59375 L 0.96875 -4.59375 L 2.015625 -2.421875 L 2.6875 -1 L 3.25 -2.421875 L 4.109375 -4.59375 L 4.890625 -4.59375 L 2.78125 0.71875 C 2.675781 1 2.550781 1.210938 2.40625 1.359375 C 2.269531 1.515625 2.101562 1.617188 1.90625 1.671875 C 1.71875 1.734375 1.476562 1.765625 1.1875 1.765625 Z M 0.671875 1.765625 "/></g></g></g><g fill="#000000" fill-opacity="1"><g transform="translate(224.694668, 200.221837)"><g/></g></g><g fill="#000000" fill-opacity="1"><g transform="translate(226.225675, 200.221837)"><g><path d="M 3.65625 0.109375 C 3.195312 0.109375 2.773438 0.03125 2.390625 -0.125 C 2.003906 -0.28125 1.671875 -0.5 1.390625 -0.78125 C 1.109375 -1.070312 0.890625 -1.414062 0.734375 -1.8125 C 0.585938 -2.207031 0.515625 -2.632812 0.515625 -3.09375 C 0.515625 -3.5625 0.585938 -3.992188 0.734375 -4.390625 C 0.890625 -4.785156 1.109375 -5.125 1.390625 -5.40625 C 1.671875 -5.695312 2.003906 -5.921875 2.390625 -6.078125 C 2.773438 -6.234375 3.195312 -6.3125 3.65625 -6.3125 C 4.144531 -6.3125 4.59375 -6.222656 5 -6.046875 C 5.40625 -5.867188 5.753906 -5.613281 6.046875 -5.28125 C 6.347656 -4.945312 6.566406 -4.550781 6.703125 -4.09375 L 5.859375 -4.09375 C 5.703125 -4.539062 5.425781 -4.890625 5.03125 -5.140625 C 4.644531 -5.398438 4.191406 -5.53125 3.671875 -5.53125 C 3.210938 -5.53125 2.804688 -5.425781 2.453125 -5.21875 C 2.097656 -5.019531 1.816406 -4.734375 1.609375 -4.359375 C 1.410156 -3.992188 1.3125 -3.570312 1.3125 -3.09375 C 1.3125 -2.625 1.410156 -2.203125 1.609375 -1.828125 C 1.816406 -1.460938 2.097656 -1.175781 2.453125 -0.96875 C 2.804688 -0.769531 3.210938 -0.671875 3.671875 -0.671875 C 4.203125 -0.671875 4.671875 -0.804688 5.078125 -1.078125 C 5.484375 -1.347656 5.765625 -1.710938 5.921875 -2.171875 L 6.75 -2.171875 C 6.625 -1.710938 6.410156 -1.3125 6.109375 -0.96875 C 5.816406 -0.625 5.457031 -0.359375 5.03125 -0.171875 C 4.613281 0.015625 4.15625 0.109375 3.65625 0.109375 Z M 3.65625 0.109375 "/></g></g></g><g fill="#000000" fill-opacity="1"><g transform="translate(232.784855, 200.221837)"><g><path d="M 2.890625 0.109375 C 2.410156 0.109375 1.988281 0.0078125 1.625 -0.1875 C 1.257812 -0.394531 0.972656 -0.679688 0.765625 -1.046875 C 0.554688 -1.421875 0.453125 -1.835938 0.453125 -2.296875 C 0.453125 -2.773438 0.554688 -3.191406 0.765625 -3.546875 C 0.972656 -3.910156 1.257812 -4.195312 1.625 -4.40625 C 1.988281 -4.613281 2.410156 -4.71875 2.890625 -4.71875 C 3.367188 -4.71875 3.789062 -4.613281 4.15625 -4.40625 C 4.53125 -4.195312 4.816406 -3.910156 5.015625 -3.546875 C 5.222656 -3.191406 5.328125 -2.773438 5.328125 -2.296875 C 5.328125 -1.835938 5.222656 -1.421875 5.015625 -1.046875 C 4.816406 -0.679688 4.53125 -0.394531 4.15625 -0.1875 C 3.789062 0.0078125 3.367188 0.109375 2.890625 0.109375 Z M 1.203125 -2.296875 C 1.203125 -1.960938 1.273438 -1.664062 1.421875 -1.40625 C 1.566406 -1.15625 1.765625 -0.957031 2.015625 -0.8125 C 2.273438 -0.675781 2.566406 -0.609375 2.890625 -0.609375 C 3.222656 -0.609375 3.515625 -0.675781 3.765625 -0.8125 C 4.023438 -0.957031 4.226562 -1.15625 4.375 -1.40625 C 4.519531 -1.664062 4.59375 -1.960938 4.59375 -2.296875 C 4.59375 -2.640625 4.519531 -2.9375 4.375 -3.1875 C 4.226562 -3.445312 4.023438 -3.644531 3.765625 -3.78125 C 3.515625 -3.925781 3.222656 -4 2.890625 -4 C 2.566406 -4 2.273438 -3.925781 2.015625 -3.78125 C 1.765625 -3.644531 1.566406 -3.445312 1.421875 -3.1875 C 1.273438 -2.9375 1.203125 -2.640625 1.203125 -2.296875 Z M 1.203125 -2.296875 "/></g></g></g><g fill="#000000" fill-opacity="1"><g transform="translate(237.909936, 200.221837)"><g><path d="M 0.828125 0 L 0.828125 -6.5625 L 1.5625 -6.5625 L 1.5625 0 Z M 0.828125 0 "/></g></g></g><g fill="#000000" fill-opacity="1"><g transform="translate(239.63569, 200.221837)"><g><path d="M 0.828125 0 L 0.828125 -6.5625 L 1.5625 -6.5625 L 1.5625 0 Z M 0.828125 0 "/></g></g></g><g fill="#000000" fill-opacity="1"><g transform="translate(241.361444, 200.221837)"><g><path d="M 2.8125 0.109375 C 2.351562 0.109375 1.945312 0.0078125 1.59375 -0.1875 C 1.238281 -0.394531 0.957031 -0.679688 0.75 -1.046875 C 0.550781 -1.410156 0.453125 -1.828125 0.453125 -2.296875 C 0.453125 -2.773438 0.550781 -3.195312 0.75 -3.5625 C 0.957031 -3.925781 1.238281 -4.207031 1.59375 -4.40625 C 1.957031 -4.613281 2.367188 -4.71875 2.828125 -4.71875 C 3.316406 -4.71875 3.738281 -4.597656 4.09375 -4.359375 C 4.457031 -4.128906 4.734375 -3.8125 4.921875 -3.40625 C 5.117188 -3.007812 5.207031 -2.539062 5.1875 -2 L 1.21875 -2 C 1.269531 -1.570312 1.441406 -1.226562 1.734375 -0.96875 C 2.023438 -0.707031 2.390625 -0.578125 2.828125 -0.578125 C 3.128906 -0.578125 3.398438 -0.640625 3.640625 -0.765625 C 3.890625 -0.898438 4.085938 -1.09375 4.234375 -1.34375 L 5.078125 -1.34375 C 4.890625 -0.894531 4.59375 -0.539062 4.1875 -0.28125 C 3.789062 -0.0195312 3.332031 0.109375 2.8125 0.109375 Z M 1.21875 -2.65625 L 4.453125 -2.65625 C 4.367188 -3.070312 4.179688 -3.398438 3.890625 -3.640625 C 3.597656 -3.890625 3.242188 -4.015625 2.828125 -4.015625 C 2.398438 -4.015625 2.039062 -3.890625 1.75 -3.640625 C 1.457031 -3.390625 1.28125 -3.0625 1.21875 -2.65625 Z M 1.21875 -2.65625 "/></g></g></g><g fill="#000000" fill-opacity="1"><g transform="translate(246.327186, 200.221837)"><g><path d="M 2.875 1.890625 C 2.289062 1.890625 1.800781 1.742188 1.40625 1.453125 C 1.019531 1.171875 0.785156 0.785156 0.703125 0.296875 L 1.46875 0.296875 C 1.53125 0.566406 1.6875 0.785156 1.9375 0.953125 C 2.1875 1.117188 2.5 1.203125 2.875 1.203125 C 3.363281 1.203125 3.738281 1.070312 4 0.8125 C 4.269531 0.550781 4.40625 0.179688 4.40625 -0.296875 L 4.40625 -0.71875 C 4.207031 -0.507812 3.960938 -0.34375 3.671875 -0.21875 C 3.390625 -0.101562 3.082031 -0.046875 2.75 -0.046875 C 2.3125 -0.046875 1.921875 -0.144531 1.578125 -0.34375 C 1.234375 -0.550781 0.957031 -0.828125 0.75 -1.171875 C 0.550781 -1.523438 0.453125 -1.929688 0.453125 -2.390625 C 0.453125 -2.835938 0.550781 -3.234375 0.75 -3.578125 C 0.957031 -3.929688 1.234375 -4.207031 1.578125 -4.40625 C 1.921875 -4.613281 2.3125 -4.71875 2.75 -4.71875 C 3.101562 -4.71875 3.425781 -4.648438 3.71875 -4.515625 C 4.007812 -4.390625 4.253906 -4.210938 4.453125 -3.984375 L 4.53125 -4.59375 L 5.140625 -4.59375 L 5.140625 -0.265625 C 5.140625 0.160156 5.046875 0.535156 4.859375 0.859375 C 4.679688 1.191406 4.421875 1.445312 4.078125 1.625 C 3.742188 1.800781 3.34375 1.890625 2.875 1.890625 Z M 1.203125 -2.390625 C 1.203125 -2.066406 1.269531 -1.78125 1.40625 -1.53125 C 1.550781 -1.289062 1.742188 -1.101562 1.984375 -0.96875 C 2.234375 -0.832031 2.515625 -0.765625 2.828125 -0.765625 C 3.148438 -0.765625 3.429688 -0.832031 3.671875 -0.96875 C 3.921875 -1.101562 4.113281 -1.289062 4.25 -1.53125 C 4.394531 -1.78125 4.46875 -2.066406 4.46875 -2.390625 C 4.46875 -2.703125 4.394531 -2.976562 4.25 -3.21875 C 4.113281 -3.457031 3.921875 -3.644531 3.671875 -3.78125 C 3.429688 -3.925781 3.148438 -4 2.828125 -4 C 2.515625 -4 2.234375 -3.925781 1.984375 -3.78125 C 1.742188 -3.644531 1.550781 -3.457031 1.40625 -3.21875 C 1.269531 -2.976562 1.203125 -2.703125 1.203125 -2.390625 Z M 1.203125 -2.390625 "/></g></g></g><g fill="#000000" fill-opacity="1"><g transform="translate(251.629319, 200.221837)"><g><path d="M 2.8125 0.109375 C 2.351562 0.109375 1.945312 0.0078125 1.59375 -0.1875 C 1.238281 -0.394531 0.957031 -0.679688 0.75 -1.046875 C 0.550781 -1.410156 0.453125 -1.828125 0.453125 -2.296875 C 0.453125 -2.773438 0.550781 -3.195312 0.75 -3.5625 C 0.957031 -3.925781 1.238281 -4.207031 1.59375 -4.40625 C 1.957031 -4.613281 2.367188 -4.71875 2.828125 -4.71875 C 3.316406 -4.71875 3.738281 -4.597656 4.09375 -4.359375 C 4.457031 -4.128906 4.734375 -3.8125 4.921875 -3.40625 C 5.117188 -3.007812 5.207031 -2.539062 5.1875 -2 L 1.21875 -2 C 1.269531 -1.570312 1.441406 -1.226562 1.734375 -0.96875 C 2.023438 -0.707031 2.390625 -0.578125 2.828125 -0.578125 C 3.128906 -0.578125 3.398438 -0.640625 3.640625 -0.765625 C 3.890625 -0.898438 4.085938 -1.09375 4.234375 -1.34375 L 5.078125 -1.34375 C 4.890625 -0.894531 4.59375 -0.539062 4.1875 -0.28125 C 3.789062 -0.0195312 3.332031 0.109375 2.8125 0.109375 Z M 1.21875 -2.65625 L 4.453125 -2.65625 C 4.367188 -3.070312 4.179688 -3.398438 3.890625 -3.640625 C 3.597656 -3.890625 3.242188 -4.015625 2.828125 -4.015625 C 2.398438 -4.015625 2.039062 -3.890625 1.75 -3.640625 C 1.457031 -3.390625 1.28125 -3.0625 1.21875 -2.65625 Z M 1.21875 -2.65625 "/></g></g></g><g fill="#000000" fill-opacity="1"><g transform="translate(256.595062, 200.221837)"><g/></g></g><g fill="#000000" fill-opacity="1"><g transform="translate(258.126068, 200.221837)"><g><path d="M 2.96875 0.109375 C 2.46875 0.109375 2.035156 0.0234375 1.671875 -0.140625 C 1.316406 -0.304688 1.039062 -0.539062 0.84375 -0.84375 C 0.644531 -1.144531 0.539062 -1.5 0.53125 -1.90625 L 1.3125 -1.90625 C 1.320312 -1.507812 1.476562 -1.195312 1.78125 -0.96875 C 2.082031 -0.738281 2.476562 -0.625 2.96875 -0.625 C 3.40625 -0.625 3.75 -0.707031 4 -0.875 C 4.257812 -1.050781 4.390625 -1.296875 4.390625 -1.609375 C 4.390625 -1.890625 4.265625 -2.117188 4.015625 -2.296875 C 3.773438 -2.472656 3.375 -2.625 2.8125 -2.75 C 2.050781 -2.9375 1.492188 -3.171875 1.140625 -3.453125 C 0.785156 -3.742188 0.609375 -4.128906 0.609375 -4.609375 C 0.609375 -5.128906 0.804688 -5.539062 1.203125 -5.84375 C 1.597656 -6.15625 2.132812 -6.3125 2.8125 -6.3125 C 3.507812 -6.3125 4.0625 -6.132812 4.46875 -5.78125 C 4.875 -5.4375 5.078125 -4.96875 5.078125 -4.375 L 4.3125 -4.375 C 4.3125 -4.738281 4.175781 -5.03125 3.90625 -5.25 C 3.632812 -5.46875 3.269531 -5.578125 2.8125 -5.578125 C 2.375 -5.578125 2.03125 -5.488281 1.78125 -5.3125 C 1.53125 -5.132812 1.40625 -4.898438 1.40625 -4.609375 C 1.40625 -4.347656 1.519531 -4.128906 1.75 -3.953125 C 1.976562 -3.785156 2.394531 -3.628906 3 -3.484375 C 3.789062 -3.285156 4.351562 -3.039062 4.6875 -2.75 C 5.03125 -2.457031 5.203125 -2.082031 5.203125 -1.625 C 5.203125 -1.09375 5 -0.671875 4.59375 -0.359375 C 4.1875 -0.046875 3.644531 0.109375 2.96875 0.109375 Z M 2.96875 0.109375 "/></g></g></g><g fill="#000000" fill-opacity="1"><g transform="translate(263.189184, 200.221837)"><g><path d="M 2.8125 0 C 2.300781 0 1.90625 -0.144531 1.625 -0.4375 C 1.34375 -0.726562 1.203125 -1.132812 1.203125 -1.65625 L 1.203125 -3.921875 L 0.234375 -3.921875 L 0.234375 -4.59375 L 0.703125 -4.59375 C 0.910156 -4.59375 1.054688 -4.628906 1.140625 -4.703125 C 1.222656 -4.773438 1.273438 -4.914062 1.296875 -5.125 L 1.375 -5.734375 L 1.953125 -5.734375 L 1.953125 -4.59375 L 3.4375 -4.59375 L 3.4375 -3.921875 L 1.953125 -3.921875 L 1.953125 -1.6875 C 1.953125 -1.039062 2.25 -0.71875 2.84375 -0.71875 L 3.5 -0.71875 L 3.5 0 Z M 2.8125 0 "/></g></g></g><g fill="#000000" fill-opacity="1"><g transform="translate(266.455263, 200.221837)"><g><path d="M 2.65625 0.109375 C 2.050781 0.109375 1.578125 -0.0820312 1.234375 -0.46875 C 0.898438 -0.851562 0.734375 -1.375 0.734375 -2.03125 L 0.734375 -4.59375 L 1.484375 -4.59375 L 1.484375 -2.109375 C 1.484375 -1.648438 1.59375 -1.285156 1.8125 -1.015625 C 2.039062 -0.742188 2.351562 -0.609375 2.75 -0.609375 C 3.1875 -0.609375 3.535156 -0.757812 3.796875 -1.0625 C 4.066406 -1.375 4.203125 -1.78125 4.203125 -2.28125 L 4.203125 -4.59375 L 4.953125 -4.59375 L 4.953125 0 L 4.34375 0 L 4.265625 -0.671875 C 4.054688 -0.398438 3.8125 -0.203125 3.53125 -0.078125 C 3.257812 0.046875 2.96875 0.109375 2.65625 0.109375 Z M 2.65625 0.109375 "/></g></g></g><g fill="#000000" fill-opacity="1"><g transform="translate(271.56264, 200.221837)"><g><path d="M 2.8125 0.109375 C 2.351562 0.109375 1.945312 0.00390625 1.59375 -0.203125 C 1.238281 -0.410156 0.957031 -0.695312 0.75 -1.0625 C 0.550781 -1.425781 0.453125 -1.835938 0.453125 -2.296875 C 0.453125 -2.765625 0.550781 -3.175781 0.75 -3.53125 C 0.957031 -3.894531 1.238281 -4.179688 1.59375 -4.390625 C 1.945312 -4.609375 2.351562 -4.71875 2.8125 -4.71875 C 3.164062 -4.71875 3.492188 -4.648438 3.796875 -4.515625 C 4.097656 -4.378906 4.351562 -4.191406 4.5625 -3.953125 L 4.5625 -6.5625 L 5.3125 -6.5625 L 5.3125 0 L 4.703125 0 L 4.609375 -0.703125 C 4.398438 -0.453125 4.140625 -0.253906 3.828125 -0.109375 C 3.515625 0.0351562 3.175781 0.109375 2.8125 0.109375 Z M 1.203125 -2.296875 C 1.203125 -1.972656 1.273438 -1.679688 1.421875 -1.421875 C 1.566406 -1.160156 1.765625 -0.957031 2.015625 -0.8125 C 2.273438 -0.675781 2.566406 -0.609375 2.890625 -0.609375 C 3.234375 -0.609375 3.53125 -0.675781 3.78125 -0.8125 C 4.03125 -0.957031 4.226562 -1.160156 4.375 -1.421875 C 4.519531 -1.679688 4.59375 -1.972656 4.59375 -2.296875 C 4.59375 -2.628906 4.519531 -2.925781 4.375 -3.1875 C 4.226562 -3.445312 4.03125 -3.644531 3.78125 -3.78125 C 3.53125 -3.925781 3.234375 -4 2.890625 -4 C 2.566406 -4 2.273438 -3.925781 2.015625 -3.78125 C 1.765625 -3.644531 1.566406 -3.445312 1.421875 -3.1875 C 1.273438 -2.925781 1.203125 -2.628906 1.203125 -2.296875 Z M 1.203125 -2.296875 "/></g></g></g><g fill="#000000" fill-opacity="1"><g transform="translate(277.02412, 200.221837)"><g><path d="M 2.8125 0.109375 C 2.351562 0.109375 1.945312 0.0078125 1.59375 -0.1875 C 1.238281 -0.394531 0.957031 -0.679688 0.75 -1.046875 C 0.550781 -1.410156 0.453125 -1.828125 0.453125 -2.296875 C 0.453125 -2.773438 0.550781 -3.195312 0.75 -3.5625 C 0.957031 -3.925781 1.238281 -4.207031 1.59375 -4.40625 C 1.957031 -4.613281 2.367188 -4.71875 2.828125 -4.71875 C 3.316406 -4.71875 3.738281 -4.597656 4.09375 -4.359375 C 4.457031 -4.128906 4.734375 -3.8125 4.921875 -3.40625 C 5.117188 -3.007812 5.207031 -2.539062 5.1875 -2 L 1.21875 -2 C 1.269531 -1.570312 1.441406 -1.226562 1.734375 -0.96875 C 2.023438 -0.707031 2.390625 -0.578125 2.828125 -0.578125 C 3.128906 -0.578125 3.398438 -0.640625 3.640625 -0.765625 C 3.890625 -0.898438 4.085938 -1.09375 4.234375 -1.34375 L 5.078125 -1.34375 C 4.890625 -0.894531 4.59375 -0.539062 4.1875 -0.28125 C 3.789062 -0.0195312 3.332031 0.109375 2.8125 0.109375 Z M 1.21875 -2.65625 L 4.453125 -2.65625 C 4.367188 -3.070312 4.179688 -3.398438 3.890625 -3.640625 C 3.597656 -3.890625 3.242188 -4.015625 2.828125 -4.015625 C 2.398438 -4.015625 2.039062 -3.890625 1.75 -3.640625 C 1.457031 -3.390625 1.28125 -3.0625 1.21875 -2.65625 Z M 1.21875 -2.65625 "/></g></g></g><g fill="#000000" fill-opacity="1"><g transform="translate(281.989863, 200.221837)"><g><path d="M 0.828125 0 L 0.828125 -4.59375 L 1.4375 -4.59375 L 1.515625 -3.921875 C 1.710938 -4.203125 1.953125 -4.40625 2.234375 -4.53125 C 2.523438 -4.65625 2.828125 -4.71875 3.140625 -4.71875 C 3.753906 -4.71875 4.226562 -4.519531 4.5625 -4.125 C 4.90625 -3.738281 5.078125 -3.21875 5.078125 -2.5625 L 5.078125 0 L 4.34375 0 L 4.34375 -2.484375 C 4.34375 -2.953125 4.222656 -3.320312 3.984375 -3.59375 C 3.753906 -3.863281 3.4375 -4 3.03125 -4 C 2.75 -4 2.5 -3.929688 2.28125 -3.796875 C 2.0625 -3.660156 1.882812 -3.460938 1.75 -3.203125 C 1.625 -2.953125 1.5625 -2.660156 1.5625 -2.328125 L 1.5625 0 Z M 0.828125 0 "/></g></g></g><g fill="#000000" fill-opacity="1"><g transform="translate(287.141509, 200.221837)"><g><path d="M 2.8125 0 C 2.300781 0 1.90625 -0.144531 1.625 -0.4375 C 1.34375 -0.726562 1.203125 -1.132812 1.203125 -1.65625 L 1.203125 -3.921875 L 0.234375 -3.921875 L 0.234375 -4.59375 L 0.703125 -4.59375 C 0.910156 -4.59375 1.054688 -4.628906 1.140625 -4.703125 C 1.222656 -4.773438 1.273438 -4.914062 1.296875 -5.125 L 1.375 -5.734375 L 1.953125 -5.734375 L 1.953125 -4.59375 L 3.4375 -4.59375 L 3.4375 -3.921875 L 1.953125 -3.921875 L 1.953125 -1.6875 C 1.953125 -1.039062 2.25 -0.71875 2.84375 -0.71875 L 3.5 -0.71875 L 3.5 0 Z M 2.8125 0 "/></g></g></g><g fill="#000000" fill-opacity="1"><g transform="translate(290.407588, 200.221837)"><g/></g></g><g fill="#000000" fill-opacity="1"><g transform="translate(291.938594, 200.221837)"><g><path d="M 3.65625 0.109375 C 3.195312 0.109375 2.773438 0.03125 2.390625 -0.125 C 2.003906 -0.28125 1.671875 -0.5 1.390625 -0.78125 C 1.109375 -1.070312 0.890625 -1.414062 0.734375 -1.8125 C 0.585938 -2.207031 0.515625 -2.632812 0.515625 -3.09375 C 0.515625 -3.5625 0.585938 -3.992188 0.734375 -4.390625 C 0.890625 -4.785156 1.109375 -5.125 1.390625 -5.40625 C 1.671875 -5.695312 2.003906 -5.921875 2.390625 -6.078125 C 2.773438 -6.234375 3.195312 -6.3125 3.65625 -6.3125 C 4.144531 -6.3125 4.59375 -6.222656 5 -6.046875 C 5.40625 -5.867188 5.753906 -5.613281 6.046875 -5.28125 C 6.347656 -4.945312 6.566406 -4.550781 6.703125 -4.09375 L 5.859375 -4.09375 C 5.703125 -4.539062 5.425781 -4.890625 5.03125 -5.140625 C 4.644531 -5.398438 4.191406 -5.53125 3.671875 -5.53125 C 3.210938 -5.53125 2.804688 -5.425781 2.453125 -5.21875 C 2.097656 -5.019531 1.816406 -4.734375 1.609375 -4.359375 C 1.410156 -3.992188 1.3125 -3.570312 1.3125 -3.09375 C 1.3125 -2.625 1.410156 -2.203125 1.609375 -1.828125 C 1.816406 -1.460938 2.097656 -1.175781 2.453125 -0.96875 C 2.804688 -0.769531 3.210938 -0.671875 3.671875 -0.671875 C 4.203125 -0.671875 4.671875 -0.804688 5.078125 -1.078125 C 5.484375 -1.347656 5.765625 -1.710938 5.921875 -2.171875 L 6.75 -2.171875 C 6.625 -1.710938 6.410156 -1.3125 6.109375 -0.96875 C 5.816406 -0.625 5.457031 -0.359375 5.03125 -0.171875 C 4.613281 0.015625 4.15625 0.109375 3.65625 0.109375 Z M 3.65625 0.109375 "/></g></g></g><g fill="#000000" fill-opacity="1"><g transform="translate(298.497775, 200.221837)"><g><path d="M 0.828125 0 L 0.828125 -6.5625 L 1.5625 -6.5625 L 1.5625 -4 C 1.769531 -4.25 2.007812 -4.429688 2.28125 -4.546875 C 2.5625 -4.660156 2.847656 -4.71875 3.140625 -4.71875 C 3.753906 -4.71875 4.226562 -4.523438 4.5625 -4.140625 C 4.90625 -3.765625 5.078125 -3.25 5.078125 -2.59375 L 5.078125 0 L 4.34375 0 L 4.34375 -2.515625 C 4.34375 -2.972656 4.226562 -3.332031 4 -3.59375 C 3.769531 -3.863281 3.453125 -4 3.046875 -4 C 2.617188 -4 2.265625 -3.847656 1.984375 -3.546875 C 1.703125 -3.253906 1.5625 -2.851562 1.5625 -2.34375 L 1.5625 0 Z M 0.828125 0 "/></g></g></g><g fill="#000000" fill-opacity="1"><g transform="translate(303.649421, 200.221837)"><g><path d="M 2.328125 0.078125 C 1.773438 0.078125 1.34375 -0.046875 1.03125 -0.296875 C 0.71875 -0.554688 0.5625 -0.898438 0.5625 -1.328125 C 0.5625 -1.742188 0.703125 -2.078125 0.984375 -2.328125 C 1.273438 -2.578125 1.660156 -2.703125 2.140625 -2.703125 L 4.015625 -2.703125 L 4.015625 -2.875 C 4.015625 -3.226562 3.898438 -3.503906 3.671875 -3.703125 C 3.453125 -3.910156 3.148438 -4.015625 2.765625 -4.015625 C 2.472656 -4.015625 2.21875 -3.945312 2 -3.8125 C 1.78125 -3.6875 1.628906 -3.507812 1.546875 -3.28125 L 0.796875 -3.28125 C 0.898438 -3.726562 1.125 -4.078125 1.46875 -4.328125 C 1.820312 -4.585938 2.25 -4.71875 2.75 -4.71875 C 3.15625 -4.71875 3.507812 -4.640625 3.8125 -4.484375 C 4.113281 -4.335938 4.347656 -4.128906 4.515625 -3.859375 C 4.679688 -3.585938 4.765625 -3.273438 4.765625 -2.921875 L 4.765625 0 L 4.15625 0 L 4.078125 -0.640625 C 3.660156 -0.160156 3.078125 0.078125 2.328125 0.078125 Z M 1.296875 -1.34375 C 1.296875 -1.113281 1.390625 -0.929688 1.578125 -0.796875 C 1.773438 -0.660156 2.035156 -0.59375 2.359375 -0.59375 C 2.671875 -0.59375 2.953125 -0.65625 3.203125 -0.78125 C 3.453125 -0.90625 3.648438 -1.078125 3.796875 -1.296875 C 3.941406 -1.515625 4.019531 -1.765625 4.03125 -2.046875 L 2.171875 -2.046875 C 1.921875 -2.046875 1.710938 -1.984375 1.546875 -1.859375 C 1.378906 -1.734375 1.296875 -1.5625 1.296875 -1.34375 Z M 1.296875 -1.34375 "/></g></g></g><g fill="#000000" fill-opacity="1"><g transform="translate(308.47352, 200.221837)"><g><path d="M 3.328125 0.109375 C 2.972656 0.109375 2.640625 0.0390625 2.328125 -0.09375 C 2.023438 -0.226562 1.769531 -0.414062 1.5625 -0.65625 L 1.5625 1.765625 L 0.828125 1.765625 L 0.828125 -4.59375 L 1.4375 -4.59375 L 1.53125 -3.890625 C 1.726562 -4.148438 1.984375 -4.351562 2.296875 -4.5 C 2.609375 -4.644531 2.953125 -4.71875 3.328125 -4.71875 C 3.785156 -4.71875 4.1875 -4.609375 4.53125 -4.390625 C 4.882812 -4.179688 5.160156 -3.894531 5.359375 -3.53125 C 5.566406 -3.175781 5.671875 -2.765625 5.671875 -2.296875 C 5.671875 -1.835938 5.566406 -1.425781 5.359375 -1.0625 C 5.160156 -0.695312 4.882812 -0.410156 4.53125 -0.203125 C 4.1875 0.00390625 3.785156 0.109375 3.328125 0.109375 Z M 1.546875 -2.296875 C 1.546875 -1.972656 1.613281 -1.679688 1.75 -1.421875 C 1.894531 -1.160156 2.09375 -0.957031 2.34375 -0.8125 C 2.601562 -0.675781 2.898438 -0.609375 3.234375 -0.609375 C 3.566406 -0.609375 3.859375 -0.675781 4.109375 -0.8125 C 4.367188 -0.957031 4.566406 -1.160156 4.703125 -1.421875 C 4.847656 -1.679688 4.921875 -1.972656 4.921875 -2.296875 C 4.921875 -2.628906 4.847656 -2.925781 4.703125 -3.1875 C 4.566406 -3.445312 4.367188 -3.644531 4.109375 -3.78125 C 3.859375 -3.925781 3.566406 -4 3.234375 -4 C 2.898438 -4 2.601562 -3.925781 2.34375 -3.78125 C 2.09375 -3.644531 1.894531 -3.445312 1.75 -3.1875 C 1.613281 -2.925781 1.546875 -2.628906 1.546875 -2.296875 Z M 1.546875 -2.296875 "/></g></g></g><g fill="#000000" fill-opacity="1"><g transform="translate(313.935, 200.221837)"><g><path d="M 2.8125 0 C 2.300781 0 1.90625 -0.144531 1.625 -0.4375 C 1.34375 -0.726562 1.203125 -1.132812 1.203125 -1.65625 L 1.203125 -3.921875 L 0.234375 -3.921875 L 0.234375 -4.59375 L 0.703125 -4.59375 C 0.910156 -4.59375 1.054688 -4.628906 1.140625 -4.703125 C 1.222656 -4.773438 1.273438 -4.914062 1.296875 -5.125 L 1.375 -5.734375 L 1.953125 -5.734375 L 1.953125 -4.59375 L 3.4375 -4.59375 L 3.4375 -3.921875 L 1.953125 -3.921875 L 1.953125 -1.6875 C 1.953125 -1.039062 2.25 -0.71875 2.84375 -0.71875 L 3.5 -0.71875 L 3.5 0 Z M 2.8125 0 "/></g></g></g><g fill="#000000" fill-opacity="1"><g transform="translate(317.201079, 200.221837)"><g><path d="M 2.8125 0.109375 C 2.351562 0.109375 1.945312 0.0078125 1.59375 -0.1875 C 1.238281 -0.394531 0.957031 -0.679688 0.75 -1.046875 C 0.550781 -1.410156 0.453125 -1.828125 0.453125 -2.296875 C 0.453125 -2.773438 0.550781 -3.195312 0.75 -3.5625 C 0.957031 -3.925781 1.238281 -4.207031 1.59375 -4.40625 C 1.957031 -4.613281 2.367188 -4.71875 2.828125 -4.71875 C 3.316406 -4.71875 3.738281 -4.597656 4.09375 -4.359375 C 4.457031 -4.128906 4.734375 -3.8125 4.921875 -3.40625 C 5.117188 -3.007812 5.207031 -2.539062 5.1875 -2 L 1.21875 -2 C 1.269531 -1.570312 1.441406 -1.226562 1.734375 -0.96875 C 2.023438 -0.707031 2.390625 -0.578125 2.828125 -0.578125 C 3.128906 -0.578125 3.398438 -0.640625 3.640625 -0.765625 C 3.890625 -0.898438 4.085938 -1.09375 4.234375 -1.34375 L 5.078125 -1.34375 C 4.890625 -0.894531 4.59375 -0.539062 4.1875 -0.28125 C 3.789062 -0.0195312 3.332031 0.109375 2.8125 0.109375 Z M 1.21875 -2.65625 L 4.453125 -2.65625 C 4.367188 -3.070312 4.179688 -3.398438 3.890625 -3.640625 C 3.597656 -3.890625 3.242188 -4.015625 2.828125 -4.015625 C 2.398438 -4.015625 2.039062 -3.890625 1.75 -3.640625 C 1.457031 -3.390625 1.28125 -3.0625 1.21875 -2.65625 Z M 1.21875 -2.65625 "/></g></g></g><g fill="#000000" fill-opacity="1"><g transform="translate(322.166822, 200.221837)"><g><path d="M 0.828125 0 L 0.828125 -4.59375 L 1.4375 -4.59375 L 1.53125 -3.796875 C 1.6875 -4.078125 1.882812 -4.28125 2.125 -4.40625 C 2.375 -4.53125 2.695312 -4.59375 3.09375 -4.59375 L 3.515625 -4.59375 L 3.515625 -3.90625 L 3.0625 -3.90625 C 2.78125 -3.90625 2.523438 -3.847656 2.296875 -3.734375 C 2.078125 -3.628906 1.898438 -3.445312 1.765625 -3.1875 C 1.628906 -2.925781 1.5625 -2.578125 1.5625 -2.140625 L 1.5625 0 Z M 0.828125 0 "/></g></g></g></svg>