<svg xmlns="http://www.w3.org/2000/svg" xmlns:xlink="http://www.w3.org/1999/xlink" width="500" zoomAndPan="magnify" viewBox="0 0 375 374.999991" height="500" preserveAspectRatio="xMidYMid meet" version="1.0"><defs><g/><clipPath id="a4bcfe0d6e"><path d="M 77 77 L 298 77 L 298 298 L 77 298 Z M 77 77 " clip-rule="nonzero"/></clipPath><clipPath id="ce374ed2ba"><path d="M 67.746094 187.496094 L 187.503906 67.742188 L 307.257812 187.496094 L 187.503906 307.25 Z M 67.746094 187.496094 " clip-rule="nonzero"/></clipPath><clipPath id="b5a769c8cb"><path d="M 84.1875 171.054688 L 171.0625 84.179688 C 175.421875 79.820312 181.335938 77.371094 187.503906 77.371094 C 193.667969 77.371094 199.582031 79.820312 203.941406 84.179688 L 290.816406 171.054688 C 295.175781 175.414062 297.625 181.328125 297.625 187.496094 C 297.625 193.660156 295.175781 199.574219 290.816406 203.933594 L 203.941406 290.808594 C 199.582031 295.167969 193.667969 297.617188 187.503906 297.617188 C 181.335938 297.617188 175.421875 295.167969 171.0625 290.808594 L 84.1875 203.933594 C 79.828125 199.574219 77.378906 193.660156 77.378906 187.496094 C 77.378906 181.328125 79.828125 175.414062 84.1875 171.054688 Z M 84.1875 171.054688 " clip-rule="nonzero"/></clipPath></defs><g clip-path="url(#a4bcfe0d6e)"><g clip-path="url(#ce374ed2ba)"><g clip-path="url(#b5a769c8cb)"><path fill="#000000" d="M 67.746094 187.496094 L 187.503906 67.742188 L 307.257812 187.496094 L 187.503906 307.25 Z M 67.746094 187.496094 " fill-opacity="1" fill-rule="nonzero"/></g></g></g><g fill="#ffffff" fill-opacity="1"><g transform="translate(106.832705, 220.643597)"><g><path d="M 42.234375 -0.8125 C 42.328125 -0.625 42.304688 -0.441406 42.171875 -0.265625 C 42.035156 -0.0859375 41.851562 0 41.625 0 L 32.34375 0 C 32.03125 0 31.828125 -0.132812 31.734375 -0.40625 L 21.109375 -30.390625 L 10.625 -0.40625 C 10.582031 -0.132812 10.359375 0 9.953125 0 L 0.734375 0 C 0.421875 0 0.207031 -0.0859375 0.09375 -0.265625 C -0.0078125 -0.441406 -0.0195312 -0.625 0.0625 -0.8125 L 20.4375 -53.390625 C 20.53125 -53.660156 20.753906 -53.796875 21.109375 -53.796875 C 21.472656 -53.796875 21.695312 -53.660156 21.78125 -53.390625 Z M 42.234375 -0.8125 "/></g></g></g><g fill="#ffffff" fill-opacity="1"><g transform="translate(157.467944, 220.643597)"><g><path d="M 30.734375 -9.890625 L 41.015625 -9.890625 L 41.015625 -0.609375 C 41.015625 -0.203125 40.769531 0 40.28125 0 L 31.546875 0 C 28.847656 0 26.039062 -0.195312 23.125 -0.59375 C 20.21875 -1 17.394531 -1.75 14.65625 -2.84375 C 11.925781 -3.945312 9.453125 -5.492188 7.234375 -7.484375 C 5.015625 -9.484375 3.253906 -12.0625 1.953125 -15.21875 C 0.648438 -18.382812 0 -22.28125 0 -26.90625 C 0 -31.65625 0.660156 -35.644531 1.984375 -38.875 C 3.304688 -42.101562 5.078125 -44.703125 7.296875 -46.671875 C 9.515625 -48.640625 12 -50.140625 14.75 -51.171875 C 17.507812 -52.203125 20.335938 -52.894531 23.234375 -53.25 C 26.128906 -53.613281 28.898438 -53.796875 31.546875 -53.796875 L 40.28125 -53.796875 C 40.769531 -53.796875 41.015625 -53.59375 41.015625 -53.1875 L 41.015625 -32.078125 L 30.734375 -32.078125 L 30.734375 -43.984375 C 26.828125 -44.203125 23.335938 -43.757812 20.265625 -42.65625 C 17.203125 -41.5625 14.785156 -39.722656 13.015625 -37.140625 C 11.242188 -34.566406 10.359375 -31.15625 10.359375 -26.90625 C 10.359375 -23.582031 10.835938 -20.84375 11.796875 -18.6875 C 12.765625 -16.539062 14.039062 -14.863281 15.625 -13.65625 C 17.21875 -12.445312 18.929688 -11.5625 20.765625 -11 C 22.609375 -10.4375 24.40625 -10.097656 26.15625 -9.984375 C 27.90625 -9.867188 29.429688 -9.835938 30.734375 -9.890625 Z M 30.734375 -9.890625 "/></g></g></g><g fill="#ffffff" fill-opacity="1"><g transform="translate(206.825542, 220.643597)"><g><path d="M 48.15625 -12.984375 L 48.15625 -30.0625 L 34.4375 -2.5625 C 34.34375 -2.289062 34.140625 -2.15625 33.828125 -2.15625 L 25.5625 -2.15625 C 25.195312 -2.15625 24.96875 -2.289062 24.875 -2.5625 L 10.296875 -30.796875 L 10.296875 -0.609375 C 10.296875 -0.203125 10.046875 0 9.546875 0 L 0.671875 0 C 0.222656 0 0 -0.203125 0 -0.609375 L 0 -53.1875 C 0 -53.59375 0.222656 -53.796875 0.671875 -53.796875 L 9.6875 -53.796875 C 10.039062 -53.796875 10.265625 -53.660156 10.359375 -53.390625 L 29.65625 -13.984375 L 48.015625 -53.390625 C 48.191406 -53.660156 48.4375 -53.796875 48.75 -53.796875 L 57.640625 -53.796875 C 58.128906 -53.796875 58.375 -53.59375 58.375 -53.1875 L 58.375 -12.984375 Z M 48.15625 -12.984375 "/></g></g></g></svg>