<svg xmlns="http://www.w3.org/2000/svg" xmlns:xlink="http://www.w3.org/1999/xlink" width="500" zoomAndPan="magnify" viewBox="0 0 375 374.999991" height="500" preserveAspectRatio="xMidYMid meet" version="1.0"><defs><g/><clipPath id="781c556eb9"><path d="M 66 66 L 309 66 L 309 309 L 66 309 Z M 66 66 " clip-rule="nonzero"/></clipPath><clipPath id="85b4696526"><path d="M 56.472656 187.496094 L 187.503906 56.464844 L 318.53125 187.496094 L 187.503906 318.523438 Z M 56.472656 187.496094 " clip-rule="nonzero"/></clipPath><clipPath id="7c36307552"><path d="M 72.914062 171.054688 L 171.0625 72.90625 C 180.140625 63.828125 194.863281 63.828125 203.941406 72.90625 L 302.089844 171.054688 C 311.171875 180.132812 311.171875 194.855469 302.089844 203.933594 L 203.941406 302.085938 C 194.863281 311.164062 180.140625 311.164062 171.0625 302.085938 L 72.914062 203.933594 C 63.832031 194.855469 63.832031 180.132812 72.914062 171.054688 Z M 72.914062 171.054688 " clip-rule="nonzero"/></clipPath><clipPath id="8bdaa55ed3"><path d="M 66 66 L 309 66 L 309 309 L 66 309 Z M 66 66 " clip-rule="nonzero"/></clipPath><clipPath id="d920d4797c"><path d="M 56.472656 187.496094 L 187.707031 56.261719 L 318.9375 187.496094 L 187.707031 318.726562 Z M 56.472656 187.496094 " clip-rule="nonzero"/></clipPath><clipPath id="74c740de6d"><path d="M 56.472656 187.496094 L 188.425781 55.542969 L 320.375 187.496094 L 188.425781 319.445312 Z M 56.472656 187.496094 " clip-rule="nonzero"/></clipPath><clipPath id="2068c261ca"><path d="M 72.910156 171.054688 L 171.054688 72.910156 C 180.136719 63.832031 194.855469 63.832031 203.933594 72.910156 L 302.078125 171.054688 C 311.15625 180.136719 311.15625 194.855469 302.078125 203.933594 L 203.933594 302.078125 C 194.855469 311.15625 180.136719 311.15625 171.054688 302.078125 L 72.910156 203.933594 C 63.832031 194.855469 63.832031 180.136719 72.910156 171.054688 Z M 72.910156 171.054688 " clip-rule="nonzero"/></clipPath></defs><g clip-path="url(#781c556eb9)"><g clip-path="url(#85b4696526)"><g clip-path="url(#7c36307552)"><path fill="#ffffff" d="M 56.472656 187.496094 L 187.503906 56.464844 L 318.53125 187.496094 L 187.503906 318.523438 Z M 56.472656 187.496094 " fill-opacity="1" fill-rule="nonzero"/></g></g></g><g clip-path="url(#8bdaa55ed3)"><g clip-path="url(#d920d4797c)"><g clip-path="url(#74c740de6d)"><g clip-path="url(#2068c261ca)"><path stroke-linecap="butt" transform="matrix(0.585862, -0.585862, 0.585862, 0.585862, 56.472642, 187.495226)" fill="none" stroke-linejoin="miter" d="M 28.059544 -0.00258075 L 195.58107 -0.00258075 C 211.079728 0.00075301 223.641342 12.562367 223.641342 28.057692 L 223.641342 195.579217 C 223.638009 211.077876 211.076395 223.63949 195.58107 223.63949 L 28.059544 223.63949 C 12.56422 223.63949 0.00260577 211.077876 -0.00072799 195.579217 L -0.00072799 28.057692 C -0.00072799 12.562367 12.560886 0.00075301 28.059544 -0.00258075 Z M 28.059544 -0.00258075 " stroke="#000000" stroke-width="18.104258" stroke-opacity="1" stroke-miterlimit="4"/></g></g></g></g><g fill="#1b1515" fill-opacity="1"><g transform="translate(99.240134, 224.081714)"><g><path d="M 46.203125 -0.890625 C 46.304688 -0.691406 46.28125 -0.492188 46.125 -0.296875 C 45.976562 -0.0976562 45.785156 0 45.546875 0 L 35.390625 0 C 35.046875 0 34.828125 -0.144531 34.734375 -0.4375 L 23.109375 -33.25 L 11.625 -0.4375 C 11.570312 -0.144531 11.328125 0 10.890625 0 L 0.8125 0 C 0.46875 0 0.234375 -0.0976562 0.109375 -0.296875 C -0.015625 -0.492188 -0.0234375 -0.691406 0.078125 -0.890625 L 22.375 -58.421875 C 22.46875 -58.710938 22.707031 -58.859375 23.09375 -58.859375 C 23.488281 -58.859375 23.738281 -58.710938 23.84375 -58.421875 Z M 46.203125 -0.890625 "/></g></g></g><g fill="#1b1515" fill-opacity="1"><g transform="translate(154.640023, 224.081714)"><g><path d="M 33.625 -10.8125 L 44.875 -10.8125 L 44.875 -0.65625 C 44.875 -0.21875 44.609375 0 44.078125 0 L 34.515625 0 C 31.566406 0 28.5 -0.21875 25.3125 -0.65625 C 22.125 -1.101562 19.03125 -1.925781 16.03125 -3.125 C 13.039062 -4.332031 10.332031 -6.023438 7.90625 -8.203125 C 5.476562 -10.390625 3.550781 -13.210938 2.125 -16.671875 C 0.707031 -20.128906 0 -24.382812 0 -29.4375 C 0 -34.632812 0.722656 -39 2.171875 -42.53125 C 3.617188 -46.0625 5.554688 -48.90625 7.984375 -51.0625 C 10.410156 -53.21875 13.128906 -54.859375 16.140625 -55.984375 C 19.160156 -57.117188 22.253906 -57.878906 25.421875 -58.265625 C 28.585938 -58.660156 31.617188 -58.859375 34.515625 -58.859375 L 44.078125 -58.859375 C 44.609375 -58.859375 44.875 -58.640625 44.875 -58.203125 L 44.875 -35.09375 L 33.625 -35.09375 L 33.625 -48.125 C 29.351562 -48.363281 25.535156 -47.878906 22.171875 -46.671875 C 18.816406 -45.472656 16.171875 -43.460938 14.234375 -40.640625 C 12.296875 -37.828125 11.328125 -34.09375 11.328125 -29.4375 C 11.328125 -25.800781 11.851562 -22.804688 12.90625 -20.453125 C 13.96875 -18.097656 15.367188 -16.257812 17.109375 -14.9375 C 18.847656 -13.613281 20.722656 -12.644531 22.734375 -12.03125 C 24.742188 -11.414062 26.703125 -11.046875 28.609375 -10.921875 C 30.523438 -10.804688 32.195312 -10.769531 33.625 -10.8125 Z M 33.625 -10.8125 "/></g></g></g><g fill="#1b1515" fill-opacity="1"><g transform="translate(208.642051, 224.081714)"><g><path d="M 52.6875 -14.203125 L 52.6875 -32.890625 L 37.671875 -2.796875 C 37.578125 -2.503906 37.359375 -2.359375 37.015625 -2.359375 L 27.953125 -2.359375 C 27.566406 -2.359375 27.320312 -2.503906 27.21875 -2.796875 L 11.25 -33.703125 L 11.25 -0.65625 C 11.25 -0.21875 10.984375 0 10.453125 0 L 0.734375 0 C 0.242188 0 0 -0.21875 0 -0.65625 L 0 -58.203125 C 0 -58.640625 0.242188 -58.859375 0.734375 -58.859375 L 10.59375 -58.859375 C 10.988281 -58.859375 11.234375 -58.710938 11.328125 -58.421875 L 32.453125 -15.296875 L 52.53125 -58.421875 C 52.726562 -58.710938 53 -58.859375 53.34375 -58.859375 L 63.0625 -58.859375 C 63.59375 -58.859375 63.859375 -58.640625 63.859375 -58.203125 L 63.859375 -14.203125 Z M 52.6875 -14.203125 "/></g></g></g></svg>