<svg xmlns="http://www.w3.org/2000/svg" xmlns:xlink="http://www.w3.org/1999/xlink" width="500" zoomAndPan="magnify" viewBox="0 0 375 374.999991" height="500" preserveAspectRatio="xMidYMid meet" version="1.0"><defs><g/><clipPath id="5460fb2b6e"><path d="M 68 68 L 307 68 L 307 307 L 68 307 Z M 68 68 " clip-rule="nonzero"/></clipPath><clipPath id="41aa297781"><path d="M 58.664062 187.496094 L 187.5 58.65625 L 316.339844 187.496094 L 187.5 316.335938 Z M 58.664062 187.496094 " clip-rule="nonzero"/></clipPath><clipPath id="bd52f93caf"><path d="M 75.101562 171.054688 L 171.0625 75.097656 C 180.140625 66.015625 194.863281 66.015625 203.941406 75.097656 L 299.902344 171.054688 C 308.980469 180.132812 308.980469 194.855469 299.902344 203.933594 L 203.941406 299.894531 C 194.863281 308.972656 180.140625 308.972656 171.0625 299.894531 L 75.101562 203.933594 C 66.023438 194.855469 66.023438 180.132812 75.101562 171.054688 Z M 75.101562 171.054688 " clip-rule="nonzero"/></clipPath><clipPath id="4b5663b68f"><path d="M 68 66 L 309 66 L 309 307 L 68 307 Z M 68 66 " clip-rule="nonzero"/></clipPath><clipPath id="b61886562a"><path d="M 58.664062 186.699219 L 188.296875 57.0625 L 317.933594 186.699219 L 188.296875 316.335938 Z M 58.664062 186.699219 " clip-rule="nonzero"/></clipPath><clipPath id="2e37cec146"><path d="M 75.101562 170.257812 L 171.859375 73.503906 C 180.9375 64.425781 195.660156 64.425781 204.738281 73.503906 L 301.492188 170.257812 C 310.574219 179.339844 310.574219 194.058594 301.492188 203.140625 L 204.738281 299.894531 C 195.660156 308.972656 180.9375 308.972656 171.859375 299.894531 L 75.101562 203.140625 C 66.023438 194.058594 66.023438 179.339844 75.101562 170.257812 Z M 75.101562 170.257812 " clip-rule="nonzero"/></clipPath><clipPath id="47f6558f3c"><path d="M 68 68 L 309 68 L 309 309 L 68 309 Z M 68 68 " clip-rule="nonzero"/></clipPath><clipPath id="190f0e7059"><path d="M 58.664062 188.292969 L 188.296875 58.65625 L 317.933594 188.292969 L 188.296875 317.925781 Z M 58.664062 188.292969 " clip-rule="nonzero"/></clipPath><clipPath id="5e183faad9"><path d="M 75.101562 171.851562 L 171.859375 75.097656 C 180.9375 66.015625 195.660156 66.015625 204.738281 75.097656 L 301.492188 171.851562 C 310.574219 180.929688 310.574219 195.652344 301.492188 204.730469 L 204.738281 301.488281 C 195.660156 310.566406 180.9375 310.566406 171.859375 301.488281 L 75.101562 204.730469 C 66.023438 195.652344 66.023438 180.929688 75.101562 171.851562 Z M 75.101562 171.851562 " clip-rule="nonzero"/></clipPath></defs><g clip-path="url(#5460fb2b6e)"><g clip-path="url(#41aa297781)"><g clip-path="url(#bd52f93caf)"><path fill="#cff665" d="M 58.664062 187.496094 L 187.5 58.65625 L 316.339844 187.496094 L 187.5 316.335938 Z M 58.664062 187.496094 " fill-opacity="1" fill-rule="nonzero"/></g></g></g><g fill="#4200f6" fill-opacity="1"><g transform="translate(100.713114, 223.157994)"><g><path d="M 45.4375 -0.875 C 45.53125 -0.675781 45.503906 -0.476562 45.359375 -0.28125 C 45.210938 -0.09375 45.019531 0 44.78125 0 L 34.796875 0 C 34.460938 0 34.242188 -0.144531 34.140625 -0.4375 L 22.71875 -32.703125 L 11.4375 -0.4375 C 11.382812 -0.144531 11.140625 0 10.703125 0 L 0.796875 0 C 0.460938 0 0.234375 -0.09375 0.109375 -0.28125 C -0.015625 -0.476562 -0.0234375 -0.675781 0.078125 -0.875 L 22 -57.4375 C 22.09375 -57.726562 22.332031 -57.875 22.71875 -57.875 C 23.101562 -57.875 23.34375 -57.726562 23.4375 -57.4375 Z M 45.4375 -0.875 "/></g></g></g><g fill="#4200f6" fill-opacity="1"><g transform="translate(155.189653, 223.157994)"><g><path d="M 33.0625 -10.640625 L 44.125 -10.640625 L 44.125 -0.65625 C 44.125 -0.21875 43.859375 0 43.328125 0 L 33.921875 0 C 31.035156 0 28.023438 -0.210938 24.890625 -0.640625 C 21.753906 -1.078125 18.710938 -1.882812 15.765625 -3.0625 C 12.828125 -4.25 10.164062 -5.914062 7.78125 -8.0625 C 5.394531 -10.207031 3.5 -12.976562 2.09375 -16.375 C 0.695312 -19.78125 0 -23.96875 0 -28.9375 C 0 -34.050781 0.707031 -38.34375 2.125 -41.8125 C 3.550781 -45.289062 5.457031 -48.085938 7.84375 -50.203125 C 10.238281 -52.328125 12.914062 -53.941406 15.875 -55.046875 C 18.84375 -56.160156 21.878906 -56.910156 24.984375 -57.296875 C 28.097656 -57.679688 31.078125 -57.875 33.921875 -57.875 L 43.328125 -57.875 C 43.859375 -57.875 44.125 -57.65625 44.125 -57.21875 L 44.125 -34.515625 L 33.0625 -34.515625 L 33.0625 -47.3125 C 28.863281 -47.550781 25.113281 -47.078125 21.8125 -45.890625 C 18.507812 -44.710938 15.90625 -42.738281 14 -39.96875 C 12.09375 -37.195312 11.140625 -33.519531 11.140625 -28.9375 C 11.140625 -25.363281 11.65625 -22.421875 12.6875 -20.109375 C 13.726562 -17.796875 15.101562 -15.988281 16.8125 -14.6875 C 18.53125 -13.382812 20.378906 -12.429688 22.359375 -11.828125 C 24.335938 -11.222656 26.265625 -10.859375 28.140625 -10.734375 C 30.023438 -10.617188 31.664062 -10.585938 33.0625 -10.640625 Z M 33.0625 -10.640625 "/></g></g></g><g fill="#4200f6" fill-opacity="1"><g transform="translate(208.291626, 223.157994)"><g><path d="M 51.796875 -13.96875 L 51.796875 -32.34375 L 37.046875 -2.75 C 36.941406 -2.457031 36.722656 -2.3125 36.390625 -2.3125 L 27.484375 -2.3125 C 27.097656 -2.3125 26.859375 -2.457031 26.765625 -2.75 L 11.0625 -33.140625 L 11.0625 -0.65625 C 11.0625 -0.21875 10.796875 0 10.265625 0 L 0.71875 0 C 0.238281 0 0 -0.21875 0 -0.65625 L 0 -57.21875 C 0 -57.65625 0.238281 -57.875 0.71875 -57.875 L 10.421875 -57.875 C 10.804688 -57.875 11.046875 -57.726562 11.140625 -57.4375 L 31.90625 -15.046875 L 51.65625 -57.4375 C 51.84375 -57.726562 52.109375 -57.875 52.453125 -57.875 L 62 -57.875 C 62.53125 -57.875 62.796875 -57.65625 62.796875 -57.21875 L 62.796875 -13.96875 Z M 51.796875 -13.96875 "/></g></g></g><g clip-path="url(#4b5663b68f)"><g clip-path="url(#b61886562a)"><g clip-path="url(#2e37cec146)"><path fill="#f238a7" d="M 58.664062 186.699219 L 188.296875 57.0625 L 317.933594 186.699219 L 188.296875 316.335938 Z M 58.664062 186.699219 " fill-opacity="1" fill-rule="nonzero"/></g></g></g><g fill="#cff665" fill-opacity="1"><g transform="translate(100.97309, 222.581884)"><g><path d="M 45.71875 -0.875 C 45.8125 -0.675781 45.785156 -0.476562 45.640625 -0.28125 C 45.492188 -0.09375 45.300781 0 45.0625 0 L 35.015625 0 C 34.671875 0 34.453125 -0.144531 34.359375 -0.4375 L 22.859375 -32.90625 L 11.5 -0.4375 C 11.445312 -0.144531 11.207031 0 10.78125 0 L 0.796875 0 C 0.460938 0 0.234375 -0.09375 0.109375 -0.28125 C -0.015625 -0.476562 -0.0234375 -0.675781 0.078125 -0.875 L 22.125 -57.796875 C 22.226562 -58.085938 22.472656 -58.234375 22.859375 -58.234375 C 23.242188 -58.234375 23.488281 -58.085938 23.59375 -57.796875 Z M 45.71875 -0.875 "/></g></g></g><g fill="#cff665" fill-opacity="1"><g transform="translate(155.786423, 222.581884)"><g><path d="M 33.265625 -10.703125 L 44.40625 -10.703125 L 44.40625 -0.65625 C 44.40625 -0.21875 44.140625 0 43.609375 0 L 34.140625 0 C 31.234375 0 28.203125 -0.21875 25.046875 -0.65625 C 21.890625 -1.09375 18.828125 -1.90625 15.859375 -3.09375 C 12.898438 -4.28125 10.21875 -5.953125 7.8125 -8.109375 C 5.414062 -10.273438 3.515625 -13.066406 2.109375 -16.484375 C 0.703125 -19.910156 0 -24.125 0 -29.125 C 0 -34.257812 0.710938 -38.570312 2.140625 -42.0625 C 3.578125 -45.5625 5.492188 -48.378906 7.890625 -50.515625 C 10.296875 -52.648438 12.988281 -54.273438 15.96875 -55.390625 C 18.957031 -56.515625 22.015625 -57.269531 25.140625 -57.65625 C 28.273438 -58.039062 31.273438 -58.234375 34.140625 -58.234375 L 43.609375 -58.234375 C 44.140625 -58.234375 44.40625 -58.015625 44.40625 -57.578125 L 44.40625 -34.71875 L 33.265625 -34.71875 L 33.265625 -47.609375 C 29.046875 -47.847656 25.273438 -47.375 21.953125 -46.1875 C 18.628906 -45 16.003906 -43.007812 14.078125 -40.21875 C 12.160156 -37.425781 11.203125 -33.726562 11.203125 -29.125 C 11.203125 -25.53125 11.722656 -22.566406 12.765625 -20.234375 C 13.816406 -17.910156 15.203125 -16.09375 16.921875 -14.78125 C 18.648438 -13.46875 20.507812 -12.507812 22.5 -11.90625 C 24.488281 -11.300781 26.425781 -10.9375 28.3125 -10.8125 C 30.207031 -10.6875 31.859375 -10.648438 33.265625 -10.703125 Z M 33.265625 -10.703125 "/></g></g></g><g fill="#cff665" fill-opacity="1"><g transform="translate(209.21669, 222.581884)"><g><path d="M 52.125 -14.046875 L 52.125 -32.546875 L 37.265625 -2.765625 C 37.171875 -2.472656 36.953125 -2.328125 36.609375 -2.328125 L 27.65625 -2.328125 C 27.269531 -2.328125 27.03125 -2.472656 26.9375 -2.765625 L 11.140625 -33.34375 L 11.140625 -0.65625 C 11.140625 -0.21875 10.875 0 10.34375 0 L 0.734375 0 C 0.242188 0 0 -0.21875 0 -0.65625 L 0 -57.578125 C 0 -58.015625 0.242188 -58.234375 0.734375 -58.234375 L 10.484375 -58.234375 C 10.867188 -58.234375 11.109375 -58.085938 11.203125 -57.796875 L 32.109375 -15.140625 L 51.984375 -57.796875 C 52.171875 -58.085938 52.4375 -58.234375 52.78125 -58.234375 L 62.390625 -58.234375 C 62.921875 -58.234375 63.1875 -58.015625 63.1875 -57.578125 L 63.1875 -14.046875 Z M 52.125 -14.046875 "/></g></g></g><g clip-path="url(#47f6558f3c)"><g clip-path="url(#190f0e7059)"><g clip-path="url(#5e183faad9)"><path fill="#ff4733" d="M 58.664062 188.292969 L 188.296875 58.65625 L 317.933594 188.292969 L 188.296875 317.925781 Z M 58.664062 188.292969 " fill-opacity="1" fill-rule="nonzero"/></g></g></g><g fill="#1b1515" fill-opacity="1"><g transform="translate(100.97309, 224.174932)"><g><path d="M 45.71875 -0.875 C 45.8125 -0.675781 45.785156 -0.476562 45.640625 -0.28125 C 45.492188 -0.09375 45.300781 0 45.0625 0 L 35.015625 0 C 34.671875 0 34.453125 -0.144531 34.359375 -0.4375 L 22.859375 -32.90625 L 11.5 -0.4375 C 11.445312 -0.144531 11.207031 0 10.78125 0 L 0.796875 0 C 0.460938 0 0.234375 -0.09375 0.109375 -0.28125 C -0.015625 -0.476562 -0.0234375 -0.675781 0.078125 -0.875 L 22.125 -57.796875 C 22.226562 -58.085938 22.472656 -58.234375 22.859375 -58.234375 C 23.242188 -58.234375 23.488281 -58.085938 23.59375 -57.796875 Z M 45.71875 -0.875 "/></g></g></g><g fill="#1b1515" fill-opacity="1"><g transform="translate(155.786423, 224.174932)"><g><path d="M 33.265625 -10.703125 L 44.40625 -10.703125 L 44.40625 -0.65625 C 44.40625 -0.21875 44.140625 0 43.609375 0 L 34.140625 0 C 31.234375 0 28.203125 -0.21875 25.046875 -0.65625 C 21.890625 -1.09375 18.828125 -1.90625 15.859375 -3.09375 C 12.898438 -4.28125 10.21875 -5.953125 7.8125 -8.109375 C 5.414062 -10.273438 3.515625 -13.066406 2.109375 -16.484375 C 0.703125 -19.910156 0 -24.125 0 -29.125 C 0 -34.257812 0.710938 -38.570312 2.140625 -42.0625 C 3.578125 -45.5625 5.492188 -48.378906 7.890625 -50.515625 C 10.296875 -52.648438 12.988281 -54.273438 15.96875 -55.390625 C 18.957031 -56.515625 22.015625 -57.269531 25.140625 -57.65625 C 28.273438 -58.039062 31.273438 -58.234375 34.140625 -58.234375 L 43.609375 -58.234375 C 44.140625 -58.234375 44.40625 -58.015625 44.40625 -57.578125 L 44.40625 -34.71875 L 33.265625 -34.71875 L 33.265625 -47.609375 C 29.046875 -47.847656 25.273438 -47.375 21.953125 -46.1875 C 18.628906 -45 16.003906 -43.007812 14.078125 -40.21875 C 12.160156 -37.425781 11.203125 -33.726562 11.203125 -29.125 C 11.203125 -25.53125 11.722656 -22.566406 12.765625 -20.234375 C 13.816406 -17.910156 15.203125 -16.09375 16.921875 -14.78125 C 18.648438 -13.46875 20.507812 -12.507812 22.5 -11.90625 C 24.488281 -11.300781 26.425781 -10.9375 28.3125 -10.8125 C 30.207031 -10.6875 31.859375 -10.648438 33.265625 -10.703125 Z M 33.265625 -10.703125 "/></g></g></g><g fill="#1b1515" fill-opacity="1"><g transform="translate(209.21669, 224.174932)"><g><path d="M 52.125 -14.046875 L 52.125 -32.546875 L 37.265625 -2.765625 C 37.171875 -2.472656 36.953125 -2.328125 36.609375 -2.328125 L 27.65625 -2.328125 C 27.269531 -2.328125 27.03125 -2.472656 26.9375 -2.765625 L 11.140625 -33.34375 L 11.140625 -0.65625 C 11.140625 -0.21875 10.875 0 10.34375 0 L 0.734375 0 C 0.242188 0 0 -0.21875 0 -0.65625 L 0 -57.578125 C 0 -58.015625 0.242188 -58.234375 0.734375 -58.234375 L 10.484375 -58.234375 C 10.867188 -58.234375 11.109375 -58.085938 11.203125 -57.796875 L 32.109375 -15.140625 L 51.984375 -57.796875 C 52.171875 -58.085938 52.4375 -58.234375 52.78125 -58.234375 L 62.390625 -58.234375 C 62.921875 -58.234375 63.1875 -58.015625 63.1875 -57.578125 L 63.1875 -14.046875 Z M 52.125 -14.046875 "/></g></g></g></svg>